G04 #@! TF.GenerationSoftware,KiCad,Pcbnew,(5.1.2-1)-1*
G04 #@! TF.CreationDate,2021-02-06T11:05:53+01:00*
G04 #@! TF.ProjectId,parasite,70617261-7369-4746-952e-6b696361645f,1.1.0*
G04 #@! TF.SameCoordinates,Original*
G04 #@! TF.FileFunction,Legend,Bot*
G04 #@! TF.FilePolarity,Positive*
%FSLAX46Y46*%
G04 Gerber Fmt 4.6, Leading zero omitted, Abs format (unit mm)*
G04 Created by KiCad (PCBNEW (5.1.2-1)-1) date 2021-02-06 11:05:53*
%MOMM*%
%LPD*%
G04 APERTURE LIST*
%ADD10C,0.200000*%
%ADD11C,0.120000*%
%ADD12C,0.002540*%
%ADD13C,0.150000*%
G04 APERTURE END LIST*
D10*
X104571428Y-79450000D02*
X104571428Y-80164285D01*
X106071428Y-80164285D01*
X104571428Y-78950000D02*
X106071428Y-78950000D01*
X104571428Y-77378571D02*
X105285714Y-77878571D01*
X104571428Y-78235714D02*
X106071428Y-78235714D01*
X106071428Y-77664285D01*
X106000000Y-77521428D01*
X105928571Y-77450000D01*
X105785714Y-77378571D01*
X105571428Y-77378571D01*
X105428571Y-77450000D01*
X105357142Y-77521428D01*
X105285714Y-77664285D01*
X105285714Y-78235714D01*
X105928571Y-76807142D02*
X106000000Y-76735714D01*
X106071428Y-76592857D01*
X106071428Y-76235714D01*
X106000000Y-76092857D01*
X105928571Y-76021428D01*
X105785714Y-75950000D01*
X105642857Y-75950000D01*
X105428571Y-76021428D01*
X104571428Y-76878571D01*
X104571428Y-75950000D01*
X105571428Y-74664285D02*
X104571428Y-74664285D01*
X106142857Y-75021428D02*
X105071428Y-75378571D01*
X105071428Y-74450000D01*
X106071428Y-73164285D02*
X106071428Y-73878571D01*
X105357142Y-73950000D01*
X105428571Y-73878571D01*
X105500000Y-73735714D01*
X105500000Y-73378571D01*
X105428571Y-73235714D01*
X105357142Y-73164285D01*
X105214285Y-73092857D01*
X104857142Y-73092857D01*
X104714285Y-73164285D01*
X104642857Y-73235714D01*
X104571428Y-73378571D01*
X104571428Y-73735714D01*
X104642857Y-73878571D01*
X104714285Y-73950000D01*
X106071428Y-72164285D02*
X106071428Y-72021428D01*
X106000000Y-71878571D01*
X105928571Y-71807142D01*
X105785714Y-71735714D01*
X105500000Y-71664285D01*
X105142857Y-71664285D01*
X104857142Y-71735714D01*
X104714285Y-71807142D01*
X104642857Y-71878571D01*
X104571428Y-72021428D01*
X104571428Y-72164285D01*
X104642857Y-72307142D01*
X104714285Y-72378571D01*
X104857142Y-72450000D01*
X105142857Y-72521428D01*
X105500000Y-72521428D01*
X105785714Y-72450000D01*
X105928571Y-72378571D01*
X106000000Y-72307142D01*
X106071428Y-72164285D01*
X104571428Y-69664285D02*
X104642857Y-69807142D01*
X104714285Y-69878571D01*
X104857142Y-69950000D01*
X105285714Y-69950000D01*
X105428571Y-69878571D01*
X105500000Y-69807142D01*
X105571428Y-69664285D01*
X105571428Y-69450000D01*
X105500000Y-69307142D01*
X105428571Y-69235714D01*
X105285714Y-69164285D01*
X104857142Y-69164285D01*
X104714285Y-69235714D01*
X104642857Y-69307142D01*
X104571428Y-69450000D01*
X104571428Y-69664285D01*
X105571428Y-68521428D02*
X104571428Y-68521428D01*
X105428571Y-68521428D02*
X105500000Y-68450000D01*
X105571428Y-68307142D01*
X105571428Y-68092857D01*
X105500000Y-67950000D01*
X105357142Y-67878571D01*
X104571428Y-67878571D01*
X104571428Y-66950000D02*
X104642857Y-67092857D01*
X104785714Y-67164285D01*
X106071428Y-67164285D01*
X105571428Y-66521428D02*
X104571428Y-66164285D01*
X105571428Y-65807142D02*
X104571428Y-66164285D01*
X104214285Y-66307142D01*
X104142857Y-66378571D01*
X104071428Y-66521428D01*
X104714285Y-65235714D02*
X104642857Y-65164285D01*
X104571428Y-65235714D01*
X104642857Y-65307142D01*
X104714285Y-65235714D01*
X104571428Y-65235714D01*
X105142857Y-65235714D02*
X106000000Y-65307142D01*
X106071428Y-65235714D01*
X106000000Y-65164285D01*
X105142857Y-65235714D01*
X106071428Y-65235714D01*
X116385714Y-44785714D02*
X116385714Y-45785714D01*
X116385714Y-44833333D02*
X116290476Y-44785714D01*
X116100000Y-44785714D01*
X116004761Y-44833333D01*
X115957142Y-44880952D01*
X115909523Y-44976190D01*
X115909523Y-45261904D01*
X115957142Y-45357142D01*
X116004761Y-45404761D01*
X116100000Y-45452380D01*
X116290476Y-45452380D01*
X116385714Y-45404761D01*
X115052380Y-45452380D02*
X115052380Y-44928571D01*
X115100000Y-44833333D01*
X115195238Y-44785714D01*
X115385714Y-44785714D01*
X115480952Y-44833333D01*
X115052380Y-45404761D02*
X115147619Y-45452380D01*
X115385714Y-45452380D01*
X115480952Y-45404761D01*
X115528571Y-45309523D01*
X115528571Y-45214285D01*
X115480952Y-45119047D01*
X115385714Y-45071428D01*
X115147619Y-45071428D01*
X115052380Y-45023809D01*
X114576190Y-45452380D02*
X114576190Y-44785714D01*
X114576190Y-44976190D02*
X114528571Y-44880952D01*
X114480952Y-44833333D01*
X114385714Y-44785714D01*
X114290476Y-44785714D01*
X113528571Y-45452380D02*
X113528571Y-44928571D01*
X113576190Y-44833333D01*
X113671428Y-44785714D01*
X113861904Y-44785714D01*
X113957142Y-44833333D01*
X113528571Y-45404761D02*
X113623809Y-45452380D01*
X113861904Y-45452380D01*
X113957142Y-45404761D01*
X114004761Y-45309523D01*
X114004761Y-45214285D01*
X113957142Y-45119047D01*
X113861904Y-45071428D01*
X113623809Y-45071428D01*
X113528571Y-45023809D01*
X113100000Y-45404761D02*
X113004761Y-45452380D01*
X112814285Y-45452380D01*
X112719047Y-45404761D01*
X112671428Y-45309523D01*
X112671428Y-45261904D01*
X112719047Y-45166666D01*
X112814285Y-45119047D01*
X112957142Y-45119047D01*
X113052380Y-45071428D01*
X113100000Y-44976190D01*
X113100000Y-44928571D01*
X113052380Y-44833333D01*
X112957142Y-44785714D01*
X112814285Y-44785714D01*
X112719047Y-44833333D01*
X112242857Y-45452380D02*
X112242857Y-44785714D01*
X112242857Y-44452380D02*
X112290476Y-44500000D01*
X112242857Y-44547619D01*
X112195238Y-44500000D01*
X112242857Y-44452380D01*
X112242857Y-44547619D01*
X111909523Y-44785714D02*
X111528571Y-44785714D01*
X111766666Y-44452380D02*
X111766666Y-45309523D01*
X111719047Y-45404761D01*
X111623809Y-45452380D01*
X111528571Y-45452380D01*
X110814285Y-45404761D02*
X110909523Y-45452380D01*
X111100000Y-45452380D01*
X111195238Y-45404761D01*
X111242857Y-45309523D01*
X111242857Y-44928571D01*
X111195238Y-44833333D01*
X111100000Y-44785714D01*
X110909523Y-44785714D01*
X110814285Y-44833333D01*
X110766666Y-44928571D01*
X110766666Y-45023809D01*
X111242857Y-45119047D01*
X114742857Y-47152380D02*
X115314285Y-47152380D01*
X115028571Y-47152380D02*
X115028571Y-46152380D01*
X115123809Y-46295238D01*
X115219047Y-46390476D01*
X115314285Y-46438095D01*
X114314285Y-47057142D02*
X114266666Y-47104761D01*
X114314285Y-47152380D01*
X114361904Y-47104761D01*
X114314285Y-47057142D01*
X114314285Y-47152380D01*
X113314285Y-47152380D02*
X113885714Y-47152380D01*
X113600000Y-47152380D02*
X113600000Y-46152380D01*
X113695238Y-46295238D01*
X113790476Y-46390476D01*
X113885714Y-46438095D01*
X112885714Y-47057142D02*
X112838095Y-47104761D01*
X112885714Y-47152380D01*
X112933333Y-47104761D01*
X112885714Y-47057142D01*
X112885714Y-47152380D01*
X112219047Y-46152380D02*
X112123809Y-46152380D01*
X112028571Y-46200000D01*
X111980952Y-46247619D01*
X111933333Y-46342857D01*
X111885714Y-46533333D01*
X111885714Y-46771428D01*
X111933333Y-46961904D01*
X111980952Y-47057142D01*
X112028571Y-47104761D01*
X112123809Y-47152380D01*
X112219047Y-47152380D01*
X112314285Y-47104761D01*
X112361904Y-47057142D01*
X112409523Y-46961904D01*
X112457142Y-46771428D01*
X112457142Y-46533333D01*
X112409523Y-46342857D01*
X112361904Y-46247619D01*
X112314285Y-46200000D01*
X112219047Y-46152380D01*
X117195238Y-48852380D02*
X117195238Y-48185714D01*
X117195238Y-48376190D02*
X117147619Y-48280952D01*
X117100000Y-48233333D01*
X117004761Y-48185714D01*
X116909523Y-48185714D01*
X116576190Y-48852380D02*
X116576190Y-47852380D01*
X116576190Y-48233333D02*
X116480952Y-48185714D01*
X116290476Y-48185714D01*
X116195238Y-48233333D01*
X116147619Y-48280952D01*
X116100000Y-48376190D01*
X116100000Y-48661904D01*
X116147619Y-48757142D01*
X116195238Y-48804761D01*
X116290476Y-48852380D01*
X116480952Y-48852380D01*
X116576190Y-48804761D01*
X115242857Y-48852380D02*
X115242857Y-48328571D01*
X115290476Y-48233333D01*
X115385714Y-48185714D01*
X115576190Y-48185714D01*
X115671428Y-48233333D01*
X115242857Y-48804761D02*
X115338095Y-48852380D01*
X115576190Y-48852380D01*
X115671428Y-48804761D01*
X115719047Y-48709523D01*
X115719047Y-48614285D01*
X115671428Y-48519047D01*
X115576190Y-48471428D01*
X115338095Y-48471428D01*
X115242857Y-48423809D01*
X114766666Y-48852380D02*
X114766666Y-48185714D01*
X114766666Y-48376190D02*
X114719047Y-48280952D01*
X114671428Y-48233333D01*
X114576190Y-48185714D01*
X114480952Y-48185714D01*
X114004761Y-48852380D02*
X114100000Y-48804761D01*
X114147619Y-48757142D01*
X114195238Y-48661904D01*
X114195238Y-48376190D01*
X114147619Y-48280952D01*
X114100000Y-48233333D01*
X114004761Y-48185714D01*
X113861904Y-48185714D01*
X113766666Y-48233333D01*
X113719047Y-48280952D01*
X113671428Y-48376190D01*
X113671428Y-48661904D01*
X113719047Y-48757142D01*
X113766666Y-48804761D01*
X113861904Y-48852380D01*
X114004761Y-48852380D01*
X113242857Y-48185714D02*
X113242857Y-48852380D01*
X113242857Y-48280952D02*
X113195238Y-48233333D01*
X113100000Y-48185714D01*
X112957142Y-48185714D01*
X112861904Y-48233333D01*
X112814285Y-48328571D01*
X112814285Y-48852380D01*
X112338095Y-48757142D02*
X112290476Y-48804761D01*
X112338095Y-48852380D01*
X112385714Y-48804761D01*
X112338095Y-48757142D01*
X112338095Y-48852380D01*
X111861904Y-48185714D02*
X111861904Y-48852380D01*
X111861904Y-48280952D02*
X111814285Y-48233333D01*
X111719047Y-48185714D01*
X111576190Y-48185714D01*
X111480952Y-48233333D01*
X111433333Y-48328571D01*
X111433333Y-48852380D01*
X110576190Y-48804761D02*
X110671428Y-48852380D01*
X110861904Y-48852380D01*
X110957142Y-48804761D01*
X111004761Y-48709523D01*
X111004761Y-48328571D01*
X110957142Y-48233333D01*
X110861904Y-48185714D01*
X110671428Y-48185714D01*
X110576190Y-48233333D01*
X110528571Y-48328571D01*
X110528571Y-48423809D01*
X111004761Y-48519047D01*
X110242857Y-48185714D02*
X109861904Y-48185714D01*
X110100000Y-47852380D02*
X110100000Y-48709523D01*
X110052380Y-48804761D01*
X109957142Y-48852380D01*
X109861904Y-48852380D01*
D11*
X106500000Y-99000000D02*
X129500000Y-99000000D01*
D12*
G36*
X119876840Y-50391560D02*
G01*
X119917480Y-50371240D01*
X120011460Y-50312820D01*
X120146080Y-50223920D01*
X120303560Y-50119780D01*
X120461040Y-50010560D01*
X120590580Y-49924200D01*
X120682020Y-49865780D01*
X120720120Y-49845460D01*
X120740440Y-49850540D01*
X120816640Y-49888640D01*
X120925860Y-49944520D01*
X120989360Y-49977540D01*
X121088420Y-50020720D01*
X121139220Y-50030880D01*
X121146840Y-50015640D01*
X121184940Y-49939440D01*
X121240820Y-49807360D01*
X121317020Y-49634640D01*
X121403380Y-49431440D01*
X121497360Y-49213000D01*
X121588800Y-48989480D01*
X121677700Y-48776120D01*
X121756440Y-48585620D01*
X121819940Y-48430680D01*
X121860580Y-48321460D01*
X121875820Y-48275740D01*
X121870740Y-48265580D01*
X121819940Y-48217320D01*
X121733580Y-48151280D01*
X121543080Y-47996340D01*
X121357660Y-47762660D01*
X121243360Y-47498500D01*
X121205260Y-47203860D01*
X121238280Y-46932080D01*
X121344960Y-46670460D01*
X121527840Y-46434240D01*
X121748820Y-46258980D01*
X122007900Y-46147220D01*
X122300000Y-46111660D01*
X122579400Y-46142140D01*
X122846100Y-46248820D01*
X123082320Y-46429160D01*
X123181380Y-46543460D01*
X123318540Y-46782220D01*
X123397280Y-47038760D01*
X123404900Y-47102260D01*
X123394740Y-47384200D01*
X123310920Y-47653440D01*
X123163600Y-47894740D01*
X122957860Y-48090320D01*
X122929920Y-48110640D01*
X122835940Y-48181760D01*
X122772440Y-48230020D01*
X122721640Y-48270660D01*
X123079780Y-49131720D01*
X123135660Y-49268880D01*
X123234720Y-49505100D01*
X123321080Y-49708300D01*
X123389660Y-49868320D01*
X123437920Y-49977540D01*
X123458240Y-50020720D01*
X123460780Y-50023260D01*
X123491260Y-50028340D01*
X123557300Y-50002940D01*
X123676680Y-49944520D01*
X123757960Y-49903880D01*
X123849400Y-49860700D01*
X123890040Y-49845460D01*
X123925600Y-49863240D01*
X124011960Y-49921660D01*
X124141500Y-50005480D01*
X124293900Y-50109620D01*
X124441220Y-50211220D01*
X124575840Y-50300120D01*
X124674900Y-50361080D01*
X124723160Y-50389020D01*
X124730780Y-50389020D01*
X124771420Y-50363620D01*
X124850160Y-50300120D01*
X124967000Y-50188360D01*
X125132100Y-50025800D01*
X125157500Y-50000400D01*
X125294660Y-49860700D01*
X125406420Y-49743860D01*
X125480080Y-49662580D01*
X125505480Y-49624480D01*
X125482620Y-49576220D01*
X125419120Y-49479700D01*
X125330220Y-49342540D01*
X125221000Y-49182520D01*
X124936520Y-48768500D01*
X125094000Y-48377340D01*
X125142260Y-48257960D01*
X125203220Y-48113180D01*
X125246400Y-48009040D01*
X125271800Y-47963320D01*
X125312440Y-47948080D01*
X125421660Y-47922680D01*
X125576600Y-47889660D01*
X125759480Y-47856640D01*
X125937280Y-47823620D01*
X126097300Y-47793140D01*
X126211600Y-47770280D01*
X126262400Y-47760120D01*
X126275100Y-47752500D01*
X126285260Y-47727100D01*
X126292880Y-47673760D01*
X126295420Y-47577240D01*
X126297960Y-47424840D01*
X126297960Y-47203860D01*
X126297960Y-47181000D01*
X126295420Y-46970180D01*
X126292880Y-46802540D01*
X126287800Y-46693320D01*
X126280180Y-46650140D01*
X126229380Y-46637440D01*
X126117620Y-46614580D01*
X125957600Y-46581560D01*
X125767100Y-46546000D01*
X125756940Y-46543460D01*
X125566440Y-46507900D01*
X125408960Y-46474880D01*
X125297200Y-46449480D01*
X125251480Y-46434240D01*
X125241320Y-46421540D01*
X125203220Y-46347880D01*
X125147340Y-46231040D01*
X125086380Y-46086260D01*
X125022880Y-45938940D01*
X124969540Y-45804320D01*
X124933980Y-45705260D01*
X124923820Y-45659540D01*
X124951760Y-45613820D01*
X125017800Y-45514760D01*
X125109240Y-45380140D01*
X125221000Y-45217580D01*
X125228620Y-45204880D01*
X125337840Y-45044860D01*
X125426740Y-44910240D01*
X125485160Y-44813720D01*
X125505480Y-44770540D01*
X125505480Y-44768000D01*
X125469920Y-44719740D01*
X125388640Y-44630840D01*
X125271800Y-44508920D01*
X125132100Y-44366680D01*
X125086380Y-44323500D01*
X124931440Y-44171100D01*
X124824760Y-44072040D01*
X124756180Y-44018700D01*
X124723160Y-44006000D01*
X124723160Y-44008540D01*
X124674900Y-44036480D01*
X124573300Y-44102520D01*
X124436140Y-44196500D01*
X124273580Y-44305720D01*
X124263420Y-44313340D01*
X124103400Y-44422560D01*
X123971320Y-44511460D01*
X123874800Y-44574960D01*
X123834160Y-44600360D01*
X123826540Y-44600360D01*
X123763040Y-44580040D01*
X123648740Y-44541940D01*
X123509040Y-44486060D01*
X123361720Y-44427640D01*
X123227100Y-44371760D01*
X123125500Y-44323500D01*
X123077240Y-44298100D01*
X123077240Y-44295560D01*
X123059460Y-44237140D01*
X123031520Y-44117760D01*
X122998500Y-43952660D01*
X122960400Y-43757080D01*
X122955320Y-43726600D01*
X122919760Y-43536100D01*
X122889280Y-43378620D01*
X122866420Y-43269400D01*
X122853720Y-43223680D01*
X122828320Y-43218600D01*
X122734340Y-43210980D01*
X122592100Y-43208440D01*
X122419380Y-43205900D01*
X122239040Y-43208440D01*
X122063780Y-43210980D01*
X121911380Y-43216060D01*
X121804700Y-43223680D01*
X121758980Y-43233840D01*
X121756440Y-43236380D01*
X121741200Y-43294800D01*
X121715800Y-43414180D01*
X121680240Y-43579280D01*
X121642140Y-43777400D01*
X121637060Y-43810420D01*
X121601500Y-44000920D01*
X121568480Y-44155860D01*
X121545620Y-44265080D01*
X121532920Y-44305720D01*
X121517680Y-44315880D01*
X121438940Y-44348900D01*
X121311940Y-44402240D01*
X121151920Y-44465740D01*
X120786160Y-44615600D01*
X120339120Y-44305720D01*
X120295940Y-44277780D01*
X120135920Y-44168560D01*
X120001300Y-44079660D01*
X119909860Y-44021240D01*
X119871760Y-43998380D01*
X119869220Y-44000920D01*
X119823500Y-44039020D01*
X119734600Y-44122840D01*
X119612680Y-44242220D01*
X119472980Y-44381920D01*
X119368840Y-44486060D01*
X119244380Y-44613060D01*
X119165640Y-44696880D01*
X119122460Y-44752760D01*
X119107220Y-44785780D01*
X119112300Y-44806100D01*
X119140240Y-44851820D01*
X119206280Y-44950880D01*
X119297720Y-45088040D01*
X119406940Y-45245520D01*
X119498380Y-45380140D01*
X119594900Y-45530000D01*
X119658400Y-45636680D01*
X119681260Y-45690020D01*
X119676180Y-45712880D01*
X119643160Y-45799240D01*
X119589820Y-45933860D01*
X119523780Y-46091340D01*
X119366300Y-46446940D01*
X119132620Y-46490120D01*
X118992920Y-46518060D01*
X118794800Y-46556160D01*
X118606840Y-46591720D01*
X118312200Y-46650140D01*
X118302040Y-47732180D01*
X118347760Y-47752500D01*
X118390940Y-47765200D01*
X118500160Y-47788060D01*
X118655100Y-47818540D01*
X118840520Y-47854100D01*
X118995460Y-47884580D01*
X119155480Y-47912520D01*
X119267240Y-47935380D01*
X119318040Y-47945540D01*
X119330740Y-47963320D01*
X119371380Y-48039520D01*
X119427260Y-48161440D01*
X119488220Y-48308760D01*
X119551720Y-48458620D01*
X119607600Y-48598320D01*
X119648240Y-48705000D01*
X119660940Y-48760880D01*
X119640620Y-48804060D01*
X119579660Y-48895500D01*
X119493300Y-49027580D01*
X119386620Y-49185060D01*
X119277400Y-49342540D01*
X119188500Y-49477160D01*
X119125000Y-49573680D01*
X119099600Y-49616860D01*
X119112300Y-49647340D01*
X119173260Y-49723540D01*
X119292640Y-49845460D01*
X119467900Y-50020720D01*
X119498380Y-50048660D01*
X119638080Y-50183280D01*
X119757460Y-50292500D01*
X119838740Y-50366160D01*
X119876840Y-50391560D01*
X119876840Y-50391560D01*
G37*
X119876840Y-50391560D02*
X119917480Y-50371240D01*
X120011460Y-50312820D01*
X120146080Y-50223920D01*
X120303560Y-50119780D01*
X120461040Y-50010560D01*
X120590580Y-49924200D01*
X120682020Y-49865780D01*
X120720120Y-49845460D01*
X120740440Y-49850540D01*
X120816640Y-49888640D01*
X120925860Y-49944520D01*
X120989360Y-49977540D01*
X121088420Y-50020720D01*
X121139220Y-50030880D01*
X121146840Y-50015640D01*
X121184940Y-49939440D01*
X121240820Y-49807360D01*
X121317020Y-49634640D01*
X121403380Y-49431440D01*
X121497360Y-49213000D01*
X121588800Y-48989480D01*
X121677700Y-48776120D01*
X121756440Y-48585620D01*
X121819940Y-48430680D01*
X121860580Y-48321460D01*
X121875820Y-48275740D01*
X121870740Y-48265580D01*
X121819940Y-48217320D01*
X121733580Y-48151280D01*
X121543080Y-47996340D01*
X121357660Y-47762660D01*
X121243360Y-47498500D01*
X121205260Y-47203860D01*
X121238280Y-46932080D01*
X121344960Y-46670460D01*
X121527840Y-46434240D01*
X121748820Y-46258980D01*
X122007900Y-46147220D01*
X122300000Y-46111660D01*
X122579400Y-46142140D01*
X122846100Y-46248820D01*
X123082320Y-46429160D01*
X123181380Y-46543460D01*
X123318540Y-46782220D01*
X123397280Y-47038760D01*
X123404900Y-47102260D01*
X123394740Y-47384200D01*
X123310920Y-47653440D01*
X123163600Y-47894740D01*
X122957860Y-48090320D01*
X122929920Y-48110640D01*
X122835940Y-48181760D01*
X122772440Y-48230020D01*
X122721640Y-48270660D01*
X123079780Y-49131720D01*
X123135660Y-49268880D01*
X123234720Y-49505100D01*
X123321080Y-49708300D01*
X123389660Y-49868320D01*
X123437920Y-49977540D01*
X123458240Y-50020720D01*
X123460780Y-50023260D01*
X123491260Y-50028340D01*
X123557300Y-50002940D01*
X123676680Y-49944520D01*
X123757960Y-49903880D01*
X123849400Y-49860700D01*
X123890040Y-49845460D01*
X123925600Y-49863240D01*
X124011960Y-49921660D01*
X124141500Y-50005480D01*
X124293900Y-50109620D01*
X124441220Y-50211220D01*
X124575840Y-50300120D01*
X124674900Y-50361080D01*
X124723160Y-50389020D01*
X124730780Y-50389020D01*
X124771420Y-50363620D01*
X124850160Y-50300120D01*
X124967000Y-50188360D01*
X125132100Y-50025800D01*
X125157500Y-50000400D01*
X125294660Y-49860700D01*
X125406420Y-49743860D01*
X125480080Y-49662580D01*
X125505480Y-49624480D01*
X125482620Y-49576220D01*
X125419120Y-49479700D01*
X125330220Y-49342540D01*
X125221000Y-49182520D01*
X124936520Y-48768500D01*
X125094000Y-48377340D01*
X125142260Y-48257960D01*
X125203220Y-48113180D01*
X125246400Y-48009040D01*
X125271800Y-47963320D01*
X125312440Y-47948080D01*
X125421660Y-47922680D01*
X125576600Y-47889660D01*
X125759480Y-47856640D01*
X125937280Y-47823620D01*
X126097300Y-47793140D01*
X126211600Y-47770280D01*
X126262400Y-47760120D01*
X126275100Y-47752500D01*
X126285260Y-47727100D01*
X126292880Y-47673760D01*
X126295420Y-47577240D01*
X126297960Y-47424840D01*
X126297960Y-47203860D01*
X126297960Y-47181000D01*
X126295420Y-46970180D01*
X126292880Y-46802540D01*
X126287800Y-46693320D01*
X126280180Y-46650140D01*
X126229380Y-46637440D01*
X126117620Y-46614580D01*
X125957600Y-46581560D01*
X125767100Y-46546000D01*
X125756940Y-46543460D01*
X125566440Y-46507900D01*
X125408960Y-46474880D01*
X125297200Y-46449480D01*
X125251480Y-46434240D01*
X125241320Y-46421540D01*
X125203220Y-46347880D01*
X125147340Y-46231040D01*
X125086380Y-46086260D01*
X125022880Y-45938940D01*
X124969540Y-45804320D01*
X124933980Y-45705260D01*
X124923820Y-45659540D01*
X124951760Y-45613820D01*
X125017800Y-45514760D01*
X125109240Y-45380140D01*
X125221000Y-45217580D01*
X125228620Y-45204880D01*
X125337840Y-45044860D01*
X125426740Y-44910240D01*
X125485160Y-44813720D01*
X125505480Y-44770540D01*
X125505480Y-44768000D01*
X125469920Y-44719740D01*
X125388640Y-44630840D01*
X125271800Y-44508920D01*
X125132100Y-44366680D01*
X125086380Y-44323500D01*
X124931440Y-44171100D01*
X124824760Y-44072040D01*
X124756180Y-44018700D01*
X124723160Y-44006000D01*
X124723160Y-44008540D01*
X124674900Y-44036480D01*
X124573300Y-44102520D01*
X124436140Y-44196500D01*
X124273580Y-44305720D01*
X124263420Y-44313340D01*
X124103400Y-44422560D01*
X123971320Y-44511460D01*
X123874800Y-44574960D01*
X123834160Y-44600360D01*
X123826540Y-44600360D01*
X123763040Y-44580040D01*
X123648740Y-44541940D01*
X123509040Y-44486060D01*
X123361720Y-44427640D01*
X123227100Y-44371760D01*
X123125500Y-44323500D01*
X123077240Y-44298100D01*
X123077240Y-44295560D01*
X123059460Y-44237140D01*
X123031520Y-44117760D01*
X122998500Y-43952660D01*
X122960400Y-43757080D01*
X122955320Y-43726600D01*
X122919760Y-43536100D01*
X122889280Y-43378620D01*
X122866420Y-43269400D01*
X122853720Y-43223680D01*
X122828320Y-43218600D01*
X122734340Y-43210980D01*
X122592100Y-43208440D01*
X122419380Y-43205900D01*
X122239040Y-43208440D01*
X122063780Y-43210980D01*
X121911380Y-43216060D01*
X121804700Y-43223680D01*
X121758980Y-43233840D01*
X121756440Y-43236380D01*
X121741200Y-43294800D01*
X121715800Y-43414180D01*
X121680240Y-43579280D01*
X121642140Y-43777400D01*
X121637060Y-43810420D01*
X121601500Y-44000920D01*
X121568480Y-44155860D01*
X121545620Y-44265080D01*
X121532920Y-44305720D01*
X121517680Y-44315880D01*
X121438940Y-44348900D01*
X121311940Y-44402240D01*
X121151920Y-44465740D01*
X120786160Y-44615600D01*
X120339120Y-44305720D01*
X120295940Y-44277780D01*
X120135920Y-44168560D01*
X120001300Y-44079660D01*
X119909860Y-44021240D01*
X119871760Y-43998380D01*
X119869220Y-44000920D01*
X119823500Y-44039020D01*
X119734600Y-44122840D01*
X119612680Y-44242220D01*
X119472980Y-44381920D01*
X119368840Y-44486060D01*
X119244380Y-44613060D01*
X119165640Y-44696880D01*
X119122460Y-44752760D01*
X119107220Y-44785780D01*
X119112300Y-44806100D01*
X119140240Y-44851820D01*
X119206280Y-44950880D01*
X119297720Y-45088040D01*
X119406940Y-45245520D01*
X119498380Y-45380140D01*
X119594900Y-45530000D01*
X119658400Y-45636680D01*
X119681260Y-45690020D01*
X119676180Y-45712880D01*
X119643160Y-45799240D01*
X119589820Y-45933860D01*
X119523780Y-46091340D01*
X119366300Y-46446940D01*
X119132620Y-46490120D01*
X118992920Y-46518060D01*
X118794800Y-46556160D01*
X118606840Y-46591720D01*
X118312200Y-46650140D01*
X118302040Y-47732180D01*
X118347760Y-47752500D01*
X118390940Y-47765200D01*
X118500160Y-47788060D01*
X118655100Y-47818540D01*
X118840520Y-47854100D01*
X118995460Y-47884580D01*
X119155480Y-47912520D01*
X119267240Y-47935380D01*
X119318040Y-47945540D01*
X119330740Y-47963320D01*
X119371380Y-48039520D01*
X119427260Y-48161440D01*
X119488220Y-48308760D01*
X119551720Y-48458620D01*
X119607600Y-48598320D01*
X119648240Y-48705000D01*
X119660940Y-48760880D01*
X119640620Y-48804060D01*
X119579660Y-48895500D01*
X119493300Y-49027580D01*
X119386620Y-49185060D01*
X119277400Y-49342540D01*
X119188500Y-49477160D01*
X119125000Y-49573680D01*
X119099600Y-49616860D01*
X119112300Y-49647340D01*
X119173260Y-49723540D01*
X119292640Y-49845460D01*
X119467900Y-50020720D01*
X119498380Y-50048660D01*
X119638080Y-50183280D01*
X119757460Y-50292500D01*
X119838740Y-50366160D01*
X119876840Y-50391560D01*
D11*
X108128249Y-62821751D02*
G75*
G02X107850000Y-62150000I671751J671751D01*
G01*
X108128249Y-81778249D02*
G75*
G03X107850000Y-82450000I671751J-671751D01*
G01*
X110550000Y-85150000D02*
G75*
G02X107850000Y-82450000I0J2700000D01*
G01*
X110550000Y-59450000D02*
G75*
G03X107850000Y-62150000I0J-2700000D01*
G01*
X114700000Y-59450000D02*
X110500000Y-59450000D01*
X114700000Y-85150000D02*
X110500000Y-85150000D01*
X124200000Y-59450000D02*
X120900000Y-59450000D01*
X130050000Y-68350000D02*
X124200000Y-59450000D01*
X130850000Y-68350000D02*
X130050000Y-68350000D01*
X130850000Y-76250000D02*
X130850000Y-68350000D01*
X130850000Y-76250000D02*
X130050000Y-76250000D01*
X130050000Y-76250000D02*
X124200000Y-85150000D01*
X124200000Y-85150000D02*
X120900000Y-85150000D01*
X123640000Y-94360000D02*
X123640000Y-95575000D01*
X123700000Y-90400000D02*
X123700000Y-88140000D01*
X124200000Y-90400000D02*
X124200000Y-88140000D01*
X126800000Y-92000000D02*
X127800000Y-92000000D01*
X126800000Y-90400000D02*
X126800000Y-92000000D01*
X127800000Y-90400000D02*
X126800000Y-90400000D01*
X127800000Y-92000000D02*
X127800000Y-90400000D01*
X124200000Y-92000000D02*
X123200000Y-92000000D01*
X124200000Y-90400000D02*
X124200000Y-92000000D01*
X123200000Y-90400000D02*
X124200000Y-90400000D01*
X123200000Y-92000000D02*
X123200000Y-90400000D01*
X128560000Y-94360000D02*
X127640000Y-94360000D01*
X122440000Y-94360000D02*
X123360000Y-94360000D01*
X126000000Y-92500000D02*
X126000000Y-88140000D01*
X125000000Y-92500000D02*
X126000000Y-92500000D01*
X125000000Y-88140000D02*
X125000000Y-92500000D01*
X127640000Y-94360000D02*
X127360000Y-94360000D01*
X127640000Y-95960000D02*
X127640000Y-94360000D01*
X128560000Y-95960000D02*
X127640000Y-95960000D01*
X128560000Y-88140000D02*
X128560000Y-95960000D01*
X122440000Y-88140000D02*
X128560000Y-88140000D01*
X122440000Y-95960000D02*
X122440000Y-88140000D01*
X123360000Y-95960000D02*
X122440000Y-95960000D01*
X123360000Y-94360000D02*
X123360000Y-95960000D01*
X123640000Y-94360000D02*
X123360000Y-94360000D01*
D13*
X132128571Y-71085714D02*
X132176190Y-71228571D01*
X132223809Y-71276190D01*
X132319047Y-71323809D01*
X132461904Y-71323809D01*
X132557142Y-71276190D01*
X132604761Y-71228571D01*
X132652380Y-71133333D01*
X132652380Y-70752380D01*
X131652380Y-70752380D01*
X131652380Y-71085714D01*
X131700000Y-71180952D01*
X131747619Y-71228571D01*
X131842857Y-71276190D01*
X131938095Y-71276190D01*
X132033333Y-71228571D01*
X132080952Y-71180952D01*
X132128571Y-71085714D01*
X132128571Y-70752380D01*
X132366666Y-71704761D02*
X132366666Y-72180952D01*
X132652380Y-71609523D02*
X131652380Y-71942857D01*
X132652380Y-72276190D01*
X131652380Y-72466666D02*
X131652380Y-73038095D01*
X132652380Y-72752380D02*
X131652380Y-72752380D01*
X132652380Y-73895238D02*
X132652380Y-73323809D01*
X132652380Y-73609523D02*
X131652380Y-73609523D01*
X131795238Y-73514285D01*
X131890476Y-73419047D01*
X131938095Y-73323809D01*
X125833333Y-96502380D02*
X125833333Y-97216666D01*
X125880952Y-97359523D01*
X125976190Y-97454761D01*
X126119047Y-97502380D01*
X126214285Y-97502380D01*
X124833333Y-97502380D02*
X125404761Y-97502380D01*
X125119047Y-97502380D02*
X125119047Y-96502380D01*
X125214285Y-96645238D01*
X125309523Y-96740476D01*
X125404761Y-96788095D01*
M02*
