G04 #@! TF.GenerationSoftware,KiCad,Pcbnew,(5.1.2-1)-1*
G04 #@! TF.CreationDate,2021-02-06T11:05:53+01:00*
G04 #@! TF.ProjectId,parasite,70617261-7369-4746-952e-6b696361645f,1.1.0*
G04 #@! TF.SameCoordinates,Original*
G04 #@! TF.FileFunction,Soldermask,Top*
G04 #@! TF.FilePolarity,Negative*
%FSLAX46Y46*%
G04 Gerber Fmt 4.6, Leading zero omitted, Abs format (unit mm)*
G04 Created by KiCad (PCBNEW (5.1.2-1)-1) date 2021-02-06 11:05:53*
%MOMM*%
%LPD*%
G04 APERTURE LIST*
%ADD10C,0.100000*%
G04 APERTURE END LIST*
D10*
G36*
X120760721Y-95970174D02*
G01*
X120860995Y-96011709D01*
X120860996Y-96011710D01*
X120951242Y-96072010D01*
X121027990Y-96148758D01*
X121027991Y-96148760D01*
X121088291Y-96239005D01*
X121129826Y-96339279D01*
X121151000Y-96445730D01*
X121151000Y-96554270D01*
X121129826Y-96660721D01*
X121088291Y-96760995D01*
X121088290Y-96760996D01*
X121027990Y-96851242D01*
X120951242Y-96927990D01*
X120905812Y-96958345D01*
X120860995Y-96988291D01*
X120760721Y-97029826D01*
X120654270Y-97051000D01*
X120545730Y-97051000D01*
X120439279Y-97029826D01*
X120339005Y-96988291D01*
X120294188Y-96958345D01*
X120248758Y-96927990D01*
X120172010Y-96851242D01*
X120111710Y-96760996D01*
X120111709Y-96760995D01*
X120070174Y-96660721D01*
X120049000Y-96554270D01*
X120049000Y-96445730D01*
X120070174Y-96339279D01*
X120111709Y-96239005D01*
X120172009Y-96148760D01*
X120172010Y-96148758D01*
X120248758Y-96072010D01*
X120339004Y-96011710D01*
X120339005Y-96011709D01*
X120439279Y-95970174D01*
X120545730Y-95949000D01*
X120654270Y-95949000D01*
X120760721Y-95970174D01*
X120760721Y-95970174D01*
G37*
G36*
X126627617Y-93583420D02*
G01*
X126708399Y-93607925D01*
X126750335Y-93620646D01*
X126863424Y-93681094D01*
X126962554Y-93762447D01*
X127043906Y-93861575D01*
X127104354Y-93974664D01*
X127106503Y-93981750D01*
X127141580Y-94097382D01*
X127151000Y-94193027D01*
X127151000Y-94806973D01*
X127141580Y-94902618D01*
X127114040Y-94993404D01*
X127104354Y-95025336D01*
X127043906Y-95138425D01*
X126962554Y-95237554D01*
X126863425Y-95318906D01*
X126750336Y-95379354D01*
X126718404Y-95389040D01*
X126627618Y-95416580D01*
X126500000Y-95429149D01*
X126372383Y-95416580D01*
X126281597Y-95389040D01*
X126249665Y-95379354D01*
X126136576Y-95318906D01*
X126037447Y-95237554D01*
X125956096Y-95138427D01*
X125956095Y-95138425D01*
X125895647Y-95025336D01*
X125895645Y-95025333D01*
X125883237Y-94984427D01*
X125858420Y-94902618D01*
X125849000Y-94806973D01*
X125849000Y-94193028D01*
X125849297Y-94190017D01*
X125855076Y-94131337D01*
X125858420Y-94097383D01*
X125895645Y-93974669D01*
X125895646Y-93974665D01*
X125956094Y-93861576D01*
X126037447Y-93762446D01*
X126136575Y-93681094D01*
X126249664Y-93620646D01*
X126291600Y-93607925D01*
X126372382Y-93583420D01*
X126500000Y-93570851D01*
X126627617Y-93583420D01*
X126627617Y-93583420D01*
G37*
G36*
X124991242Y-93578404D02*
G01*
X125028337Y-93589657D01*
X125062515Y-93607925D01*
X125092481Y-93632519D01*
X125117075Y-93662485D01*
X125135343Y-93696663D01*
X125146596Y-93733758D01*
X125151000Y-93778474D01*
X125151000Y-95221526D01*
X125146596Y-95266242D01*
X125135343Y-95303337D01*
X125117075Y-95337515D01*
X125092481Y-95367481D01*
X125062515Y-95392075D01*
X125028337Y-95410343D01*
X124991242Y-95421596D01*
X124946526Y-95426000D01*
X124053474Y-95426000D01*
X124008758Y-95421596D01*
X123971663Y-95410343D01*
X123937485Y-95392075D01*
X123907519Y-95367481D01*
X123882925Y-95337515D01*
X123864657Y-95303337D01*
X123853404Y-95266242D01*
X123849000Y-95221526D01*
X123849000Y-93778474D01*
X123853404Y-93733758D01*
X123864657Y-93696663D01*
X123882925Y-93662485D01*
X123907519Y-93632519D01*
X123937485Y-93607925D01*
X123971663Y-93589657D01*
X124008758Y-93578404D01*
X124053474Y-93574000D01*
X124946526Y-93574000D01*
X124991242Y-93578404D01*
X124991242Y-93578404D01*
G37*
G36*
X111401000Y-95001000D02*
G01*
X110499000Y-95001000D01*
X110499000Y-93999000D01*
X111401000Y-93999000D01*
X111401000Y-95001000D01*
X111401000Y-95001000D01*
G37*
G36*
X109501000Y-95001000D02*
G01*
X108599000Y-95001000D01*
X108599000Y-93999000D01*
X109501000Y-93999000D01*
X109501000Y-95001000D01*
X109501000Y-95001000D01*
G37*
G36*
X119309468Y-92753565D02*
G01*
X119348138Y-92765296D01*
X119383777Y-92784346D01*
X119415017Y-92809983D01*
X119440654Y-92841223D01*
X119459704Y-92876862D01*
X119471435Y-92915532D01*
X119476000Y-92961888D01*
X119476000Y-94038112D01*
X119471435Y-94084468D01*
X119459704Y-94123138D01*
X119440654Y-94158777D01*
X119415017Y-94190017D01*
X119383777Y-94215654D01*
X119348138Y-94234704D01*
X119309468Y-94246435D01*
X119263112Y-94251000D01*
X118611888Y-94251000D01*
X118565532Y-94246435D01*
X118526862Y-94234704D01*
X118491223Y-94215654D01*
X118459983Y-94190017D01*
X118434346Y-94158777D01*
X118415296Y-94123138D01*
X118403565Y-94084468D01*
X118399000Y-94038112D01*
X118399000Y-92961888D01*
X118403565Y-92915532D01*
X118415296Y-92876862D01*
X118434346Y-92841223D01*
X118459983Y-92809983D01*
X118491223Y-92784346D01*
X118526862Y-92765296D01*
X118565532Y-92753565D01*
X118611888Y-92749000D01*
X119263112Y-92749000D01*
X119309468Y-92753565D01*
X119309468Y-92753565D01*
G37*
G36*
X117434468Y-92753565D02*
G01*
X117473138Y-92765296D01*
X117508777Y-92784346D01*
X117540017Y-92809983D01*
X117565654Y-92841223D01*
X117584704Y-92876862D01*
X117596435Y-92915532D01*
X117601000Y-92961888D01*
X117601000Y-94038112D01*
X117596435Y-94084468D01*
X117584704Y-94123138D01*
X117565654Y-94158777D01*
X117540017Y-94190017D01*
X117508777Y-94215654D01*
X117473138Y-94234704D01*
X117434468Y-94246435D01*
X117388112Y-94251000D01*
X116736888Y-94251000D01*
X116690532Y-94246435D01*
X116651862Y-94234704D01*
X116616223Y-94215654D01*
X116584983Y-94190017D01*
X116559346Y-94158777D01*
X116540296Y-94123138D01*
X116528565Y-94084468D01*
X116524000Y-94038112D01*
X116524000Y-92961888D01*
X116528565Y-92915532D01*
X116540296Y-92876862D01*
X116559346Y-92841223D01*
X116584983Y-92809983D01*
X116616223Y-92784346D01*
X116651862Y-92765296D01*
X116690532Y-92753565D01*
X116736888Y-92749000D01*
X117388112Y-92749000D01*
X117434468Y-92753565D01*
X117434468Y-92753565D01*
G37*
G36*
X110451000Y-93001000D02*
G01*
X109549000Y-93001000D01*
X109549000Y-91999000D01*
X110451000Y-91999000D01*
X110451000Y-93001000D01*
X110451000Y-93001000D01*
G37*
G36*
X125201000Y-91801000D02*
G01*
X123399000Y-91801000D01*
X123399000Y-90399000D01*
X125201000Y-90399000D01*
X125201000Y-91801000D01*
X125201000Y-91801000D01*
G37*
G36*
X116584468Y-90466065D02*
G01*
X116623138Y-90477796D01*
X116658777Y-90496846D01*
X116690017Y-90522483D01*
X116715654Y-90553723D01*
X116734704Y-90589362D01*
X116746435Y-90628032D01*
X116751000Y-90674388D01*
X116751000Y-91325612D01*
X116746435Y-91371968D01*
X116734704Y-91410638D01*
X116715654Y-91446277D01*
X116690017Y-91477517D01*
X116658777Y-91503154D01*
X116623138Y-91522204D01*
X116584468Y-91533935D01*
X116538112Y-91538500D01*
X115461888Y-91538500D01*
X115415532Y-91533935D01*
X115376862Y-91522204D01*
X115341223Y-91503154D01*
X115309983Y-91477517D01*
X115284346Y-91446277D01*
X115265296Y-91410638D01*
X115253565Y-91371968D01*
X115249000Y-91325612D01*
X115249000Y-90674388D01*
X115253565Y-90628032D01*
X115265296Y-90589362D01*
X115284346Y-90553723D01*
X115309983Y-90522483D01*
X115341223Y-90496846D01*
X115376862Y-90477796D01*
X115415532Y-90466065D01*
X115461888Y-90461500D01*
X116538112Y-90461500D01*
X116584468Y-90466065D01*
X116584468Y-90466065D01*
G37*
G36*
X106451000Y-91501000D02*
G01*
X105549000Y-91501000D01*
X105549000Y-90499000D01*
X106451000Y-90499000D01*
X106451000Y-91501000D01*
X106451000Y-91501000D01*
G37*
G36*
X108351000Y-91501000D02*
G01*
X107449000Y-91501000D01*
X107449000Y-90499000D01*
X108351000Y-90499000D01*
X108351000Y-91501000D01*
X108351000Y-91501000D01*
G37*
G36*
X120584468Y-90403565D02*
G01*
X120623138Y-90415296D01*
X120658777Y-90434346D01*
X120690017Y-90459983D01*
X120715654Y-90491223D01*
X120734704Y-90526862D01*
X120746435Y-90565532D01*
X120751000Y-90611888D01*
X120751000Y-91263112D01*
X120746435Y-91309468D01*
X120734704Y-91348138D01*
X120715654Y-91383777D01*
X120690017Y-91415017D01*
X120658777Y-91440654D01*
X120623138Y-91459704D01*
X120584468Y-91471435D01*
X120538112Y-91476000D01*
X119461888Y-91476000D01*
X119415532Y-91471435D01*
X119376862Y-91459704D01*
X119341223Y-91440654D01*
X119309983Y-91415017D01*
X119284346Y-91383777D01*
X119265296Y-91348138D01*
X119253565Y-91309468D01*
X119249000Y-91263112D01*
X119249000Y-90611888D01*
X119253565Y-90565532D01*
X119265296Y-90526862D01*
X119284346Y-90491223D01*
X119309983Y-90459983D01*
X119341223Y-90434346D01*
X119376862Y-90415296D01*
X119415532Y-90403565D01*
X119461888Y-90399000D01*
X120538112Y-90399000D01*
X120584468Y-90403565D01*
X120584468Y-90403565D01*
G37*
G36*
X112584468Y-90341065D02*
G01*
X112623138Y-90352796D01*
X112658777Y-90371846D01*
X112690017Y-90397483D01*
X112715654Y-90428723D01*
X112734704Y-90464362D01*
X112746435Y-90503032D01*
X112751000Y-90549388D01*
X112751000Y-91200612D01*
X112746435Y-91246968D01*
X112734704Y-91285638D01*
X112715654Y-91321277D01*
X112690017Y-91352517D01*
X112658777Y-91378154D01*
X112623138Y-91397204D01*
X112584468Y-91408935D01*
X112538112Y-91413500D01*
X111461888Y-91413500D01*
X111415532Y-91408935D01*
X111376862Y-91397204D01*
X111341223Y-91378154D01*
X111309983Y-91352517D01*
X111284346Y-91321277D01*
X111265296Y-91285638D01*
X111253565Y-91246968D01*
X111249000Y-91200612D01*
X111249000Y-90549388D01*
X111253565Y-90503032D01*
X111265296Y-90464362D01*
X111284346Y-90428723D01*
X111309983Y-90397483D01*
X111341223Y-90371846D01*
X111376862Y-90352796D01*
X111415532Y-90341065D01*
X111461888Y-90336500D01*
X112538112Y-90336500D01*
X112584468Y-90341065D01*
X112584468Y-90341065D01*
G37*
G36*
X116584468Y-88591065D02*
G01*
X116623138Y-88602796D01*
X116658777Y-88621846D01*
X116690017Y-88647483D01*
X116715654Y-88678723D01*
X116734704Y-88714362D01*
X116746435Y-88753032D01*
X116751000Y-88799388D01*
X116751000Y-89450612D01*
X116746435Y-89496968D01*
X116734704Y-89535638D01*
X116715654Y-89571277D01*
X116690017Y-89602517D01*
X116658777Y-89628154D01*
X116623138Y-89647204D01*
X116584468Y-89658935D01*
X116538112Y-89663500D01*
X115461888Y-89663500D01*
X115415532Y-89658935D01*
X115376862Y-89647204D01*
X115341223Y-89628154D01*
X115309983Y-89602517D01*
X115284346Y-89571277D01*
X115265296Y-89535638D01*
X115253565Y-89496968D01*
X115249000Y-89450612D01*
X115249000Y-88799388D01*
X115253565Y-88753032D01*
X115265296Y-88714362D01*
X115284346Y-88678723D01*
X115309983Y-88647483D01*
X115341223Y-88621846D01*
X115376862Y-88602796D01*
X115415532Y-88591065D01*
X115461888Y-88586500D01*
X116538112Y-88586500D01*
X116584468Y-88591065D01*
X116584468Y-88591065D01*
G37*
G36*
X120584468Y-88528565D02*
G01*
X120623138Y-88540296D01*
X120658777Y-88559346D01*
X120690017Y-88584983D01*
X120715654Y-88616223D01*
X120734704Y-88651862D01*
X120746435Y-88690532D01*
X120751000Y-88736888D01*
X120751000Y-89388112D01*
X120746435Y-89434468D01*
X120734704Y-89473138D01*
X120715654Y-89508777D01*
X120690017Y-89540017D01*
X120658777Y-89565654D01*
X120623138Y-89584704D01*
X120584468Y-89596435D01*
X120538112Y-89601000D01*
X119461888Y-89601000D01*
X119415532Y-89596435D01*
X119376862Y-89584704D01*
X119341223Y-89565654D01*
X119309983Y-89540017D01*
X119284346Y-89508777D01*
X119265296Y-89473138D01*
X119253565Y-89434468D01*
X119249000Y-89388112D01*
X119249000Y-88736888D01*
X119253565Y-88690532D01*
X119265296Y-88651862D01*
X119284346Y-88616223D01*
X119309983Y-88584983D01*
X119341223Y-88559346D01*
X119376862Y-88540296D01*
X119415532Y-88528565D01*
X119461888Y-88524000D01*
X120538112Y-88524000D01*
X120584468Y-88528565D01*
X120584468Y-88528565D01*
G37*
G36*
X112584468Y-88466065D02*
G01*
X112623138Y-88477796D01*
X112658777Y-88496846D01*
X112690017Y-88522483D01*
X112715654Y-88553723D01*
X112734704Y-88589362D01*
X112746435Y-88628032D01*
X112751000Y-88674388D01*
X112751000Y-89325612D01*
X112746435Y-89371968D01*
X112734704Y-89410638D01*
X112715654Y-89446277D01*
X112690017Y-89477517D01*
X112658777Y-89503154D01*
X112623138Y-89522204D01*
X112584468Y-89533935D01*
X112538112Y-89538500D01*
X111461888Y-89538500D01*
X111415532Y-89533935D01*
X111376862Y-89522204D01*
X111341223Y-89503154D01*
X111309983Y-89477517D01*
X111284346Y-89446277D01*
X111265296Y-89410638D01*
X111253565Y-89371968D01*
X111249000Y-89325612D01*
X111249000Y-88674388D01*
X111253565Y-88628032D01*
X111265296Y-88589362D01*
X111284346Y-88553723D01*
X111309983Y-88522483D01*
X111341223Y-88496846D01*
X111376862Y-88477796D01*
X111415532Y-88466065D01*
X111461888Y-88461500D01*
X112538112Y-88461500D01*
X112584468Y-88466065D01*
X112584468Y-88466065D01*
G37*
G36*
X107401000Y-89501000D02*
G01*
X106499000Y-89501000D01*
X106499000Y-88499000D01*
X107401000Y-88499000D01*
X107401000Y-89501000D01*
X107401000Y-89501000D01*
G37*
G36*
X125201000Y-88301000D02*
G01*
X123399000Y-88301000D01*
X123399000Y-86899000D01*
X125201000Y-86899000D01*
X125201000Y-88301000D01*
X125201000Y-88301000D01*
G37*
G36*
X120584468Y-86341065D02*
G01*
X120623138Y-86352796D01*
X120658777Y-86371846D01*
X120690017Y-86397483D01*
X120715654Y-86428723D01*
X120734704Y-86464362D01*
X120746435Y-86503032D01*
X120751000Y-86549388D01*
X120751000Y-87200612D01*
X120746435Y-87246968D01*
X120734704Y-87285638D01*
X120715654Y-87321277D01*
X120690017Y-87352517D01*
X120658777Y-87378154D01*
X120623138Y-87397204D01*
X120584468Y-87408935D01*
X120538112Y-87413500D01*
X119461888Y-87413500D01*
X119415532Y-87408935D01*
X119376862Y-87397204D01*
X119341223Y-87378154D01*
X119309983Y-87352517D01*
X119284346Y-87321277D01*
X119265296Y-87285638D01*
X119253565Y-87246968D01*
X119249000Y-87200612D01*
X119249000Y-86549388D01*
X119253565Y-86503032D01*
X119265296Y-86464362D01*
X119284346Y-86428723D01*
X119309983Y-86397483D01*
X119341223Y-86371846D01*
X119376862Y-86352796D01*
X119415532Y-86341065D01*
X119461888Y-86336500D01*
X120538112Y-86336500D01*
X120584468Y-86341065D01*
X120584468Y-86341065D01*
G37*
G36*
X116584468Y-86341065D02*
G01*
X116623138Y-86352796D01*
X116658777Y-86371846D01*
X116690017Y-86397483D01*
X116715654Y-86428723D01*
X116734704Y-86464362D01*
X116746435Y-86503032D01*
X116751000Y-86549388D01*
X116751000Y-87200612D01*
X116746435Y-87246968D01*
X116734704Y-87285638D01*
X116715654Y-87321277D01*
X116690017Y-87352517D01*
X116658777Y-87378154D01*
X116623138Y-87397204D01*
X116584468Y-87408935D01*
X116538112Y-87413500D01*
X115461888Y-87413500D01*
X115415532Y-87408935D01*
X115376862Y-87397204D01*
X115341223Y-87378154D01*
X115309983Y-87352517D01*
X115284346Y-87321277D01*
X115265296Y-87285638D01*
X115253565Y-87246968D01*
X115249000Y-87200612D01*
X115249000Y-86549388D01*
X115253565Y-86503032D01*
X115265296Y-86464362D01*
X115284346Y-86428723D01*
X115309983Y-86397483D01*
X115341223Y-86371846D01*
X115376862Y-86352796D01*
X115415532Y-86341065D01*
X115461888Y-86336500D01*
X116538112Y-86336500D01*
X116584468Y-86341065D01*
X116584468Y-86341065D01*
G37*
G36*
X113121968Y-85666065D02*
G01*
X113160638Y-85677796D01*
X113196277Y-85696846D01*
X113227517Y-85722483D01*
X113253154Y-85753723D01*
X113272204Y-85789362D01*
X113283935Y-85828032D01*
X113288500Y-85874388D01*
X113288500Y-86525612D01*
X113283935Y-86571968D01*
X113272204Y-86610638D01*
X113253154Y-86646277D01*
X113227517Y-86677517D01*
X113196277Y-86703154D01*
X113160638Y-86722204D01*
X113121968Y-86733935D01*
X113075612Y-86738500D01*
X111999388Y-86738500D01*
X111953032Y-86733935D01*
X111914362Y-86722204D01*
X111878723Y-86703154D01*
X111847483Y-86677517D01*
X111821846Y-86646277D01*
X111802796Y-86610638D01*
X111791065Y-86571968D01*
X111786500Y-86525612D01*
X111786500Y-85874388D01*
X111791065Y-85828032D01*
X111802796Y-85789362D01*
X111821846Y-85753723D01*
X111847483Y-85722483D01*
X111878723Y-85696846D01*
X111914362Y-85677796D01*
X111953032Y-85666065D01*
X111999388Y-85661500D01*
X113075612Y-85661500D01*
X113121968Y-85666065D01*
X113121968Y-85666065D01*
G37*
G36*
X110784468Y-85666065D02*
G01*
X110823138Y-85677796D01*
X110858777Y-85696846D01*
X110890017Y-85722483D01*
X110915654Y-85753723D01*
X110934704Y-85789362D01*
X110946435Y-85828032D01*
X110951000Y-85874388D01*
X110951000Y-86525612D01*
X110946435Y-86571968D01*
X110934704Y-86610638D01*
X110915654Y-86646277D01*
X110890017Y-86677517D01*
X110858777Y-86703154D01*
X110823138Y-86722204D01*
X110784468Y-86733935D01*
X110738112Y-86738500D01*
X109661888Y-86738500D01*
X109615532Y-86733935D01*
X109576862Y-86722204D01*
X109541223Y-86703154D01*
X109509983Y-86677517D01*
X109484346Y-86646277D01*
X109465296Y-86610638D01*
X109453565Y-86571968D01*
X109449000Y-86525612D01*
X109449000Y-85874388D01*
X109453565Y-85828032D01*
X109465296Y-85789362D01*
X109484346Y-85753723D01*
X109509983Y-85722483D01*
X109541223Y-85696846D01*
X109576862Y-85677796D01*
X109615532Y-85666065D01*
X109661888Y-85661500D01*
X110738112Y-85661500D01*
X110784468Y-85666065D01*
X110784468Y-85666065D01*
G37*
G36*
X124884468Y-84566065D02*
G01*
X124923138Y-84577796D01*
X124958777Y-84596846D01*
X124990017Y-84622483D01*
X125015654Y-84653723D01*
X125034704Y-84689362D01*
X125046435Y-84728032D01*
X125051000Y-84774388D01*
X125051000Y-85425612D01*
X125046435Y-85471968D01*
X125034704Y-85510638D01*
X125015654Y-85546277D01*
X124990017Y-85577517D01*
X124958777Y-85603154D01*
X124923138Y-85622204D01*
X124884468Y-85633935D01*
X124838112Y-85638500D01*
X123761888Y-85638500D01*
X123715532Y-85633935D01*
X123676862Y-85622204D01*
X123641223Y-85603154D01*
X123609983Y-85577517D01*
X123584346Y-85546277D01*
X123565296Y-85510638D01*
X123553565Y-85471968D01*
X123549000Y-85425612D01*
X123549000Y-84774388D01*
X123553565Y-84728032D01*
X123565296Y-84689362D01*
X123584346Y-84653723D01*
X123609983Y-84622483D01*
X123641223Y-84596846D01*
X123676862Y-84577796D01*
X123715532Y-84566065D01*
X123761888Y-84561500D01*
X124838112Y-84561500D01*
X124884468Y-84566065D01*
X124884468Y-84566065D01*
G37*
G36*
X120584468Y-84466065D02*
G01*
X120623138Y-84477796D01*
X120658777Y-84496846D01*
X120690017Y-84522483D01*
X120715654Y-84553723D01*
X120734704Y-84589362D01*
X120746435Y-84628032D01*
X120751000Y-84674388D01*
X120751000Y-85325612D01*
X120746435Y-85371968D01*
X120734704Y-85410638D01*
X120715654Y-85446277D01*
X120690017Y-85477517D01*
X120658777Y-85503154D01*
X120623138Y-85522204D01*
X120584468Y-85533935D01*
X120538112Y-85538500D01*
X119461888Y-85538500D01*
X119415532Y-85533935D01*
X119376862Y-85522204D01*
X119341223Y-85503154D01*
X119309983Y-85477517D01*
X119284346Y-85446277D01*
X119265296Y-85410638D01*
X119253565Y-85371968D01*
X119249000Y-85325612D01*
X119249000Y-84674388D01*
X119253565Y-84628032D01*
X119265296Y-84589362D01*
X119284346Y-84553723D01*
X119309983Y-84522483D01*
X119341223Y-84496846D01*
X119376862Y-84477796D01*
X119415532Y-84466065D01*
X119461888Y-84461500D01*
X120538112Y-84461500D01*
X120584468Y-84466065D01*
X120584468Y-84466065D01*
G37*
G36*
X116584468Y-84466065D02*
G01*
X116623138Y-84477796D01*
X116658777Y-84496846D01*
X116690017Y-84522483D01*
X116715654Y-84553723D01*
X116734704Y-84589362D01*
X116746435Y-84628032D01*
X116751000Y-84674388D01*
X116751000Y-85325612D01*
X116746435Y-85371968D01*
X116734704Y-85410638D01*
X116715654Y-85446277D01*
X116690017Y-85477517D01*
X116658777Y-85503154D01*
X116623138Y-85522204D01*
X116584468Y-85533935D01*
X116538112Y-85538500D01*
X115461888Y-85538500D01*
X115415532Y-85533935D01*
X115376862Y-85522204D01*
X115341223Y-85503154D01*
X115309983Y-85477517D01*
X115284346Y-85446277D01*
X115265296Y-85410638D01*
X115253565Y-85371968D01*
X115249000Y-85325612D01*
X115249000Y-84674388D01*
X115253565Y-84628032D01*
X115265296Y-84589362D01*
X115284346Y-84553723D01*
X115309983Y-84522483D01*
X115341223Y-84496846D01*
X115376862Y-84477796D01*
X115415532Y-84466065D01*
X115461888Y-84461500D01*
X116538112Y-84461500D01*
X116584468Y-84466065D01*
X116584468Y-84466065D01*
G37*
G36*
X110784468Y-83791065D02*
G01*
X110823138Y-83802796D01*
X110858777Y-83821846D01*
X110890017Y-83847483D01*
X110915654Y-83878723D01*
X110934704Y-83914362D01*
X110946435Y-83953032D01*
X110951000Y-83999388D01*
X110951000Y-84650612D01*
X110946435Y-84696968D01*
X110934704Y-84735638D01*
X110915654Y-84771277D01*
X110890017Y-84802517D01*
X110858777Y-84828154D01*
X110823138Y-84847204D01*
X110784468Y-84858935D01*
X110738112Y-84863500D01*
X109661888Y-84863500D01*
X109615532Y-84858935D01*
X109576862Y-84847204D01*
X109541223Y-84828154D01*
X109509983Y-84802517D01*
X109484346Y-84771277D01*
X109465296Y-84735638D01*
X109453565Y-84696968D01*
X109449000Y-84650612D01*
X109449000Y-83999388D01*
X109453565Y-83953032D01*
X109465296Y-83914362D01*
X109484346Y-83878723D01*
X109509983Y-83847483D01*
X109541223Y-83821846D01*
X109576862Y-83802796D01*
X109615532Y-83791065D01*
X109661888Y-83786500D01*
X110738112Y-83786500D01*
X110784468Y-83791065D01*
X110784468Y-83791065D01*
G37*
G36*
X113121968Y-83791065D02*
G01*
X113160638Y-83802796D01*
X113196277Y-83821846D01*
X113227517Y-83847483D01*
X113253154Y-83878723D01*
X113272204Y-83914362D01*
X113283935Y-83953032D01*
X113288500Y-83999388D01*
X113288500Y-84650612D01*
X113283935Y-84696968D01*
X113272204Y-84735638D01*
X113253154Y-84771277D01*
X113227517Y-84802517D01*
X113196277Y-84828154D01*
X113160638Y-84847204D01*
X113121968Y-84858935D01*
X113075612Y-84863500D01*
X111999388Y-84863500D01*
X111953032Y-84858935D01*
X111914362Y-84847204D01*
X111878723Y-84828154D01*
X111847483Y-84802517D01*
X111821846Y-84771277D01*
X111802796Y-84735638D01*
X111791065Y-84696968D01*
X111786500Y-84650612D01*
X111786500Y-83999388D01*
X111791065Y-83953032D01*
X111802796Y-83914362D01*
X111821846Y-83878723D01*
X111847483Y-83847483D01*
X111878723Y-83821846D01*
X111914362Y-83802796D01*
X111953032Y-83791065D01*
X111999388Y-83786500D01*
X113075612Y-83786500D01*
X113121968Y-83791065D01*
X113121968Y-83791065D01*
G37*
G36*
X124884468Y-82691065D02*
G01*
X124923138Y-82702796D01*
X124958777Y-82721846D01*
X124990017Y-82747483D01*
X125015654Y-82778723D01*
X125034704Y-82814362D01*
X125046435Y-82853032D01*
X125051000Y-82899388D01*
X125051000Y-83550612D01*
X125046435Y-83596968D01*
X125034704Y-83635638D01*
X125015654Y-83671277D01*
X124990017Y-83702517D01*
X124958777Y-83728154D01*
X124923138Y-83747204D01*
X124884468Y-83758935D01*
X124838112Y-83763500D01*
X123761888Y-83763500D01*
X123715532Y-83758935D01*
X123676862Y-83747204D01*
X123641223Y-83728154D01*
X123609983Y-83702517D01*
X123584346Y-83671277D01*
X123565296Y-83635638D01*
X123553565Y-83596968D01*
X123549000Y-83550612D01*
X123549000Y-82899388D01*
X123553565Y-82853032D01*
X123565296Y-82814362D01*
X123584346Y-82778723D01*
X123609983Y-82747483D01*
X123641223Y-82721846D01*
X123676862Y-82702796D01*
X123715532Y-82691065D01*
X123761888Y-82686500D01*
X124838112Y-82686500D01*
X124884468Y-82691065D01*
X124884468Y-82691065D01*
G37*
G36*
X110784468Y-79103565D02*
G01*
X110823138Y-79115296D01*
X110858777Y-79134346D01*
X110890017Y-79159983D01*
X110915654Y-79191223D01*
X110934704Y-79226862D01*
X110946435Y-79265532D01*
X110951000Y-79311888D01*
X110951000Y-79963112D01*
X110946435Y-80009468D01*
X110934704Y-80048138D01*
X110915654Y-80083777D01*
X110890017Y-80115017D01*
X110858777Y-80140654D01*
X110823138Y-80159704D01*
X110784468Y-80171435D01*
X110738112Y-80176000D01*
X109661888Y-80176000D01*
X109615532Y-80171435D01*
X109576862Y-80159704D01*
X109541223Y-80140654D01*
X109509983Y-80115017D01*
X109484346Y-80083777D01*
X109465296Y-80048138D01*
X109453565Y-80009468D01*
X109449000Y-79963112D01*
X109449000Y-79311888D01*
X109453565Y-79265532D01*
X109465296Y-79226862D01*
X109484346Y-79191223D01*
X109509983Y-79159983D01*
X109541223Y-79134346D01*
X109576862Y-79115296D01*
X109615532Y-79103565D01*
X109661888Y-79099000D01*
X110738112Y-79099000D01*
X110784468Y-79103565D01*
X110784468Y-79103565D01*
G37*
G36*
X107384468Y-79066065D02*
G01*
X107423138Y-79077796D01*
X107458777Y-79096846D01*
X107490017Y-79122483D01*
X107515654Y-79153723D01*
X107534704Y-79189362D01*
X107546435Y-79228032D01*
X107551000Y-79274388D01*
X107551000Y-79925612D01*
X107546435Y-79971968D01*
X107534704Y-80010638D01*
X107515654Y-80046277D01*
X107490017Y-80077517D01*
X107458777Y-80103154D01*
X107423138Y-80122204D01*
X107384468Y-80133935D01*
X107338112Y-80138500D01*
X106261888Y-80138500D01*
X106215532Y-80133935D01*
X106176862Y-80122204D01*
X106141223Y-80103154D01*
X106109983Y-80077517D01*
X106084346Y-80046277D01*
X106065296Y-80010638D01*
X106053565Y-79971968D01*
X106049000Y-79925612D01*
X106049000Y-79274388D01*
X106053565Y-79228032D01*
X106065296Y-79189362D01*
X106084346Y-79153723D01*
X106109983Y-79122483D01*
X106141223Y-79096846D01*
X106176862Y-79077796D01*
X106215532Y-79066065D01*
X106261888Y-79061500D01*
X107338112Y-79061500D01*
X107384468Y-79066065D01*
X107384468Y-79066065D01*
G37*
G36*
X117996968Y-78453565D02*
G01*
X118035638Y-78465296D01*
X118071277Y-78484346D01*
X118102517Y-78509983D01*
X118128154Y-78541223D01*
X118147204Y-78576862D01*
X118158935Y-78615532D01*
X118163500Y-78661888D01*
X118163500Y-79738112D01*
X118158935Y-79784468D01*
X118147204Y-79823138D01*
X118128154Y-79858777D01*
X118102517Y-79890017D01*
X118071277Y-79915654D01*
X118035638Y-79934704D01*
X117996968Y-79946435D01*
X117950612Y-79951000D01*
X117299388Y-79951000D01*
X117253032Y-79946435D01*
X117214362Y-79934704D01*
X117178723Y-79915654D01*
X117147483Y-79890017D01*
X117121846Y-79858777D01*
X117102796Y-79823138D01*
X117091065Y-79784468D01*
X117086500Y-79738112D01*
X117086500Y-78661888D01*
X117091065Y-78615532D01*
X117102796Y-78576862D01*
X117121846Y-78541223D01*
X117147483Y-78509983D01*
X117178723Y-78484346D01*
X117214362Y-78465296D01*
X117253032Y-78453565D01*
X117299388Y-78449000D01*
X117950612Y-78449000D01*
X117996968Y-78453565D01*
X117996968Y-78453565D01*
G37*
G36*
X114096968Y-78453565D02*
G01*
X114135638Y-78465296D01*
X114171277Y-78484346D01*
X114202517Y-78509983D01*
X114228154Y-78541223D01*
X114247204Y-78576862D01*
X114258935Y-78615532D01*
X114263500Y-78661888D01*
X114263500Y-79738112D01*
X114258935Y-79784468D01*
X114247204Y-79823138D01*
X114228154Y-79858777D01*
X114202517Y-79890017D01*
X114171277Y-79915654D01*
X114135638Y-79934704D01*
X114096968Y-79946435D01*
X114050612Y-79951000D01*
X113399388Y-79951000D01*
X113353032Y-79946435D01*
X113314362Y-79934704D01*
X113278723Y-79915654D01*
X113247483Y-79890017D01*
X113221846Y-79858777D01*
X113202796Y-79823138D01*
X113191065Y-79784468D01*
X113186500Y-79738112D01*
X113186500Y-78661888D01*
X113191065Y-78615532D01*
X113202796Y-78576862D01*
X113221846Y-78541223D01*
X113247483Y-78509983D01*
X113278723Y-78484346D01*
X113314362Y-78465296D01*
X113353032Y-78453565D01*
X113399388Y-78449000D01*
X114050612Y-78449000D01*
X114096968Y-78453565D01*
X114096968Y-78453565D01*
G37*
G36*
X119871968Y-78453565D02*
G01*
X119910638Y-78465296D01*
X119946277Y-78484346D01*
X119977517Y-78509983D01*
X120003154Y-78541223D01*
X120022204Y-78576862D01*
X120033935Y-78615532D01*
X120038500Y-78661888D01*
X120038500Y-79738112D01*
X120033935Y-79784468D01*
X120022204Y-79823138D01*
X120003154Y-79858777D01*
X119977517Y-79890017D01*
X119946277Y-79915654D01*
X119910638Y-79934704D01*
X119871968Y-79946435D01*
X119825612Y-79951000D01*
X119174388Y-79951000D01*
X119128032Y-79946435D01*
X119089362Y-79934704D01*
X119053723Y-79915654D01*
X119022483Y-79890017D01*
X118996846Y-79858777D01*
X118977796Y-79823138D01*
X118966065Y-79784468D01*
X118961500Y-79738112D01*
X118961500Y-78661888D01*
X118966065Y-78615532D01*
X118977796Y-78576862D01*
X118996846Y-78541223D01*
X119022483Y-78509983D01*
X119053723Y-78484346D01*
X119089362Y-78465296D01*
X119128032Y-78453565D01*
X119174388Y-78449000D01*
X119825612Y-78449000D01*
X119871968Y-78453565D01*
X119871968Y-78453565D01*
G37*
G36*
X115971968Y-78453565D02*
G01*
X116010638Y-78465296D01*
X116046277Y-78484346D01*
X116077517Y-78509983D01*
X116103154Y-78541223D01*
X116122204Y-78576862D01*
X116133935Y-78615532D01*
X116138500Y-78661888D01*
X116138500Y-79738112D01*
X116133935Y-79784468D01*
X116122204Y-79823138D01*
X116103154Y-79858777D01*
X116077517Y-79890017D01*
X116046277Y-79915654D01*
X116010638Y-79934704D01*
X115971968Y-79946435D01*
X115925612Y-79951000D01*
X115274388Y-79951000D01*
X115228032Y-79946435D01*
X115189362Y-79934704D01*
X115153723Y-79915654D01*
X115122483Y-79890017D01*
X115096846Y-79858777D01*
X115077796Y-79823138D01*
X115066065Y-79784468D01*
X115061500Y-79738112D01*
X115061500Y-78661888D01*
X115066065Y-78615532D01*
X115077796Y-78576862D01*
X115096846Y-78541223D01*
X115122483Y-78509983D01*
X115153723Y-78484346D01*
X115189362Y-78465296D01*
X115228032Y-78453565D01*
X115274388Y-78449000D01*
X115925612Y-78449000D01*
X115971968Y-78453565D01*
X115971968Y-78453565D01*
G37*
G36*
X123851000Y-74621713D02*
G01*
X123853402Y-74646099D01*
X123860515Y-74669548D01*
X123871994Y-74691050D01*
X124019996Y-74913053D01*
X124028500Y-74923437D01*
X124034852Y-74935336D01*
X124273520Y-75293338D01*
X124289045Y-75312296D01*
X124307971Y-75327861D01*
X124329569Y-75339435D01*
X124351000Y-75345961D01*
X124351000Y-75371712D01*
X124353402Y-75396098D01*
X124360515Y-75419547D01*
X124371994Y-75441049D01*
X124408607Y-75495968D01*
X124406553Y-75497066D01*
X124387611Y-75512611D01*
X124372066Y-75531553D01*
X124360515Y-75553164D01*
X124353402Y-75576613D01*
X124351000Y-75600999D01*
X124351000Y-79451000D01*
X122249000Y-79451000D01*
X122249000Y-75600999D01*
X122246598Y-75576613D01*
X122239485Y-75553164D01*
X122227934Y-75531553D01*
X122212389Y-75512611D01*
X122193447Y-75497066D01*
X122191393Y-75495968D01*
X122228006Y-75441049D01*
X122239535Y-75419426D01*
X122246624Y-75395970D01*
X122249000Y-75371712D01*
X122249000Y-75345949D01*
X122270310Y-75339485D01*
X122291921Y-75327934D01*
X122310863Y-75312389D01*
X122326480Y-75293338D01*
X122565148Y-74935336D01*
X122571493Y-74923435D01*
X122580004Y-74913053D01*
X122728006Y-74691050D01*
X122739535Y-74669427D01*
X122746624Y-74645971D01*
X122749000Y-74621713D01*
X122749000Y-72139000D01*
X123851000Y-72139000D01*
X123851000Y-74621713D01*
X123851000Y-74621713D01*
G37*
G36*
X110784468Y-77228565D02*
G01*
X110823138Y-77240296D01*
X110858777Y-77259346D01*
X110890017Y-77284983D01*
X110915654Y-77316223D01*
X110934704Y-77351862D01*
X110946435Y-77390532D01*
X110951000Y-77436888D01*
X110951000Y-78088112D01*
X110946435Y-78134468D01*
X110934704Y-78173138D01*
X110915654Y-78208777D01*
X110890017Y-78240017D01*
X110858777Y-78265654D01*
X110823138Y-78284704D01*
X110784468Y-78296435D01*
X110738112Y-78301000D01*
X109661888Y-78301000D01*
X109615532Y-78296435D01*
X109576862Y-78284704D01*
X109541223Y-78265654D01*
X109509983Y-78240017D01*
X109484346Y-78208777D01*
X109465296Y-78173138D01*
X109453565Y-78134468D01*
X109449000Y-78088112D01*
X109449000Y-77436888D01*
X109453565Y-77390532D01*
X109465296Y-77351862D01*
X109484346Y-77316223D01*
X109509983Y-77284983D01*
X109541223Y-77259346D01*
X109576862Y-77240296D01*
X109615532Y-77228565D01*
X109661888Y-77224000D01*
X110738112Y-77224000D01*
X110784468Y-77228565D01*
X110784468Y-77228565D01*
G37*
G36*
X107384468Y-77191065D02*
G01*
X107423138Y-77202796D01*
X107458777Y-77221846D01*
X107490017Y-77247483D01*
X107515654Y-77278723D01*
X107534704Y-77314362D01*
X107546435Y-77353032D01*
X107551000Y-77399388D01*
X107551000Y-78050612D01*
X107546435Y-78096968D01*
X107534704Y-78135638D01*
X107515654Y-78171277D01*
X107490017Y-78202517D01*
X107458777Y-78228154D01*
X107423138Y-78247204D01*
X107384468Y-78258935D01*
X107338112Y-78263500D01*
X106261888Y-78263500D01*
X106215532Y-78258935D01*
X106176862Y-78247204D01*
X106141223Y-78228154D01*
X106109983Y-78202517D01*
X106084346Y-78171277D01*
X106065296Y-78135638D01*
X106053565Y-78096968D01*
X106049000Y-78050612D01*
X106049000Y-77399388D01*
X106053565Y-77353032D01*
X106065296Y-77314362D01*
X106084346Y-77278723D01*
X106109983Y-77247483D01*
X106141223Y-77221846D01*
X106176862Y-77202796D01*
X106215532Y-77191065D01*
X106261888Y-77186500D01*
X107338112Y-77186500D01*
X107384468Y-77191065D01*
X107384468Y-77191065D01*
G37*
G36*
X115384468Y-75066065D02*
G01*
X115423138Y-75077796D01*
X115458777Y-75096846D01*
X115490017Y-75122483D01*
X115515654Y-75153723D01*
X115534704Y-75189362D01*
X115546435Y-75228032D01*
X115551000Y-75274388D01*
X115551000Y-75925612D01*
X115546435Y-75971968D01*
X115534704Y-76010638D01*
X115515654Y-76046277D01*
X115490017Y-76077517D01*
X115458777Y-76103154D01*
X115423138Y-76122204D01*
X115384468Y-76133935D01*
X115338112Y-76138500D01*
X114261888Y-76138500D01*
X114215532Y-76133935D01*
X114176862Y-76122204D01*
X114141223Y-76103154D01*
X114109983Y-76077517D01*
X114084346Y-76046277D01*
X114065296Y-76010638D01*
X114053565Y-75971968D01*
X114049000Y-75925612D01*
X114049000Y-75274388D01*
X114053565Y-75228032D01*
X114065296Y-75189362D01*
X114084346Y-75153723D01*
X114109983Y-75122483D01*
X114141223Y-75096846D01*
X114176862Y-75077796D01*
X114215532Y-75066065D01*
X114261888Y-75061500D01*
X115338112Y-75061500D01*
X115384468Y-75066065D01*
X115384468Y-75066065D01*
G37*
G36*
X118184468Y-74941065D02*
G01*
X118223138Y-74952796D01*
X118258777Y-74971846D01*
X118290017Y-74997483D01*
X118315654Y-75028723D01*
X118334704Y-75064362D01*
X118346435Y-75103032D01*
X118351000Y-75149388D01*
X118351000Y-75800612D01*
X118346435Y-75846968D01*
X118334704Y-75885638D01*
X118315654Y-75921277D01*
X118290017Y-75952517D01*
X118258777Y-75978154D01*
X118223138Y-75997204D01*
X118184468Y-76008935D01*
X118138112Y-76013500D01*
X117061888Y-76013500D01*
X117015532Y-76008935D01*
X116976862Y-75997204D01*
X116941223Y-75978154D01*
X116909983Y-75952517D01*
X116884346Y-75921277D01*
X116865296Y-75885638D01*
X116853565Y-75846968D01*
X116849000Y-75800612D01*
X116849000Y-75149388D01*
X116853565Y-75103032D01*
X116865296Y-75064362D01*
X116884346Y-75028723D01*
X116909983Y-74997483D01*
X116941223Y-74971846D01*
X116976862Y-74952796D01*
X117015532Y-74941065D01*
X117061888Y-74936500D01*
X118138112Y-74936500D01*
X118184468Y-74941065D01*
X118184468Y-74941065D01*
G37*
G36*
X109101000Y-75901000D02*
G01*
X108199000Y-75901000D01*
X108199000Y-74899000D01*
X109101000Y-74899000D01*
X109101000Y-75901000D01*
X109101000Y-75901000D01*
G37*
G36*
X107201000Y-75901000D02*
G01*
X106299000Y-75901000D01*
X106299000Y-74899000D01*
X107201000Y-74899000D01*
X107201000Y-75901000D01*
X107201000Y-75901000D01*
G37*
G36*
X122351000Y-74741000D02*
G01*
X121249000Y-74741000D01*
X121249000Y-72139000D01*
X122351000Y-72139000D01*
X122351000Y-74741000D01*
X122351000Y-74741000D01*
G37*
G36*
X125351000Y-74741000D02*
G01*
X124249000Y-74741000D01*
X124249000Y-72139000D01*
X125351000Y-72139000D01*
X125351000Y-74741000D01*
X125351000Y-74741000D01*
G37*
G36*
X115384468Y-73191065D02*
G01*
X115423138Y-73202796D01*
X115458777Y-73221846D01*
X115490017Y-73247483D01*
X115515654Y-73278723D01*
X115534704Y-73314362D01*
X115546435Y-73353032D01*
X115551000Y-73399388D01*
X115551000Y-74050612D01*
X115546435Y-74096968D01*
X115534704Y-74135638D01*
X115515654Y-74171277D01*
X115490017Y-74202517D01*
X115458777Y-74228154D01*
X115423138Y-74247204D01*
X115384468Y-74258935D01*
X115338112Y-74263500D01*
X114261888Y-74263500D01*
X114215532Y-74258935D01*
X114176862Y-74247204D01*
X114141223Y-74228154D01*
X114109983Y-74202517D01*
X114084346Y-74171277D01*
X114065296Y-74135638D01*
X114053565Y-74096968D01*
X114049000Y-74050612D01*
X114049000Y-73399388D01*
X114053565Y-73353032D01*
X114065296Y-73314362D01*
X114084346Y-73278723D01*
X114109983Y-73247483D01*
X114141223Y-73221846D01*
X114176862Y-73202796D01*
X114215532Y-73191065D01*
X114261888Y-73186500D01*
X115338112Y-73186500D01*
X115384468Y-73191065D01*
X115384468Y-73191065D01*
G37*
G36*
X118184468Y-73066065D02*
G01*
X118223138Y-73077796D01*
X118258777Y-73096846D01*
X118290017Y-73122483D01*
X118315654Y-73153723D01*
X118334704Y-73189362D01*
X118346435Y-73228032D01*
X118351000Y-73274388D01*
X118351000Y-73925612D01*
X118346435Y-73971968D01*
X118334704Y-74010638D01*
X118315654Y-74046277D01*
X118290017Y-74077517D01*
X118258777Y-74103154D01*
X118223138Y-74122204D01*
X118184468Y-74133935D01*
X118138112Y-74138500D01*
X117061888Y-74138500D01*
X117015532Y-74133935D01*
X116976862Y-74122204D01*
X116941223Y-74103154D01*
X116909983Y-74077517D01*
X116884346Y-74046277D01*
X116865296Y-74010638D01*
X116853565Y-73971968D01*
X116849000Y-73925612D01*
X116849000Y-73274388D01*
X116853565Y-73228032D01*
X116865296Y-73189362D01*
X116884346Y-73153723D01*
X116909983Y-73122483D01*
X116941223Y-73096846D01*
X116976862Y-73077796D01*
X117015532Y-73066065D01*
X117061888Y-73061500D01*
X118138112Y-73061500D01*
X118184468Y-73066065D01*
X118184468Y-73066065D01*
G37*
G36*
X108151000Y-73901000D02*
G01*
X107249000Y-73901000D01*
X107249000Y-72899000D01*
X108151000Y-72899000D01*
X108151000Y-73901000D01*
X108151000Y-73901000D01*
G37*
G36*
X114056000Y-68306000D02*
G01*
X113054000Y-68306000D01*
X113054000Y-66204000D01*
X114056000Y-66204000D01*
X114056000Y-68306000D01*
X114056000Y-68306000D01*
G37*
G36*
X116596000Y-68306000D02*
G01*
X115594000Y-68306000D01*
X115594000Y-66204000D01*
X116596000Y-66204000D01*
X116596000Y-68306000D01*
X116596000Y-68306000D01*
G37*
G36*
X124216000Y-68306000D02*
G01*
X123214000Y-68306000D01*
X123214000Y-66204000D01*
X124216000Y-66204000D01*
X124216000Y-68306000D01*
X124216000Y-68306000D01*
G37*
G36*
X122946000Y-68306000D02*
G01*
X121944000Y-68306000D01*
X121944000Y-66204000D01*
X122946000Y-66204000D01*
X122946000Y-68306000D01*
X122946000Y-68306000D01*
G37*
G36*
X115326000Y-68306000D02*
G01*
X114324000Y-68306000D01*
X114324000Y-66204000D01*
X115326000Y-66204000D01*
X115326000Y-68306000D01*
X115326000Y-68306000D01*
G37*
G36*
X112786000Y-68306000D02*
G01*
X111784000Y-68306000D01*
X111784000Y-66204000D01*
X112786000Y-66204000D01*
X112786000Y-68306000D01*
X112786000Y-68306000D01*
G37*
G36*
X121676000Y-68306000D02*
G01*
X120674000Y-68306000D01*
X120674000Y-66204000D01*
X121676000Y-66204000D01*
X121676000Y-68306000D01*
X121676000Y-68306000D01*
G37*
G36*
X120406000Y-68306000D02*
G01*
X119404000Y-68306000D01*
X119404000Y-66204000D01*
X120406000Y-66204000D01*
X120406000Y-68306000D01*
X120406000Y-68306000D01*
G37*
G36*
X119136000Y-68306000D02*
G01*
X118134000Y-68306000D01*
X118134000Y-66204000D01*
X119136000Y-66204000D01*
X119136000Y-68306000D01*
X119136000Y-68306000D01*
G37*
G36*
X117866000Y-68306000D02*
G01*
X116864000Y-68306000D01*
X116864000Y-66204000D01*
X117866000Y-66204000D01*
X117866000Y-68306000D01*
X117866000Y-68306000D01*
G37*
G36*
X127551000Y-66756000D02*
G01*
X125449000Y-66756000D01*
X125449000Y-65754000D01*
X127551000Y-65754000D01*
X127551000Y-66756000D01*
X127551000Y-66756000D01*
G37*
G36*
X110551000Y-66756000D02*
G01*
X108449000Y-66756000D01*
X108449000Y-65754000D01*
X110551000Y-65754000D01*
X110551000Y-66756000D01*
X110551000Y-66756000D01*
G37*
G36*
X127551000Y-65486000D02*
G01*
X125449000Y-65486000D01*
X125449000Y-64484000D01*
X127551000Y-64484000D01*
X127551000Y-65486000D01*
X127551000Y-65486000D01*
G37*
G36*
X110551000Y-65486000D02*
G01*
X108449000Y-65486000D01*
X108449000Y-64484000D01*
X110551000Y-64484000D01*
X110551000Y-65486000D01*
X110551000Y-65486000D01*
G37*
G36*
X110551000Y-64216000D02*
G01*
X108449000Y-64216000D01*
X108449000Y-63214000D01*
X110551000Y-63214000D01*
X110551000Y-64216000D01*
X110551000Y-64216000D01*
G37*
G36*
X127551000Y-64216000D02*
G01*
X125449000Y-64216000D01*
X125449000Y-63214000D01*
X127551000Y-63214000D01*
X127551000Y-64216000D01*
X127551000Y-64216000D01*
G37*
G36*
X130160721Y-62970174D02*
G01*
X130260995Y-63011709D01*
X130260996Y-63011710D01*
X130351242Y-63072010D01*
X130427990Y-63148758D01*
X130427991Y-63148760D01*
X130488291Y-63239005D01*
X130529826Y-63339279D01*
X130551000Y-63445730D01*
X130551000Y-63554270D01*
X130529826Y-63660721D01*
X130488291Y-63760995D01*
X130488290Y-63760996D01*
X130427990Y-63851242D01*
X130351242Y-63927990D01*
X130305812Y-63958345D01*
X130260995Y-63988291D01*
X130160721Y-64029826D01*
X130054270Y-64051000D01*
X129945730Y-64051000D01*
X129839279Y-64029826D01*
X129739005Y-63988291D01*
X129694188Y-63958345D01*
X129648758Y-63927990D01*
X129572010Y-63851242D01*
X129511710Y-63760996D01*
X129511709Y-63760995D01*
X129470174Y-63660721D01*
X129449000Y-63554270D01*
X129449000Y-63445730D01*
X129470174Y-63339279D01*
X129511709Y-63239005D01*
X129572009Y-63148760D01*
X129572010Y-63148758D01*
X129648758Y-63072010D01*
X129739004Y-63011710D01*
X129739005Y-63011709D01*
X129839279Y-62970174D01*
X129945730Y-62949000D01*
X130054270Y-62949000D01*
X130160721Y-62970174D01*
X130160721Y-62970174D01*
G37*
G36*
X110551000Y-62946000D02*
G01*
X108449000Y-62946000D01*
X108449000Y-61944000D01*
X110551000Y-61944000D01*
X110551000Y-62946000D01*
X110551000Y-62946000D01*
G37*
G36*
X127551000Y-62946000D02*
G01*
X125449000Y-62946000D01*
X125449000Y-61944000D01*
X127551000Y-61944000D01*
X127551000Y-62946000D01*
X127551000Y-62946000D01*
G37*
G36*
X110551000Y-61676000D02*
G01*
X108449000Y-61676000D01*
X108449000Y-60674000D01*
X110551000Y-60674000D01*
X110551000Y-61676000D01*
X110551000Y-61676000D01*
G37*
G36*
X127551000Y-61676000D02*
G01*
X125449000Y-61676000D01*
X125449000Y-60674000D01*
X127551000Y-60674000D01*
X127551000Y-61676000D01*
X127551000Y-61676000D01*
G37*
G36*
X130160721Y-60430174D02*
G01*
X130260995Y-60471709D01*
X130260996Y-60471710D01*
X130351242Y-60532010D01*
X130427990Y-60608758D01*
X130427991Y-60608760D01*
X130488291Y-60699005D01*
X130529826Y-60799279D01*
X130551000Y-60905730D01*
X130551000Y-61014270D01*
X130529826Y-61120721D01*
X130488291Y-61220995D01*
X130488290Y-61220996D01*
X130427990Y-61311242D01*
X130351242Y-61387990D01*
X130305812Y-61418345D01*
X130260995Y-61448291D01*
X130160721Y-61489826D01*
X130054270Y-61511000D01*
X129945730Y-61511000D01*
X129839279Y-61489826D01*
X129739005Y-61448291D01*
X129694188Y-61418345D01*
X129648758Y-61387990D01*
X129572010Y-61311242D01*
X129511710Y-61220996D01*
X129511709Y-61220995D01*
X129470174Y-61120721D01*
X129449000Y-61014270D01*
X129449000Y-60905730D01*
X129470174Y-60799279D01*
X129511709Y-60699005D01*
X129572009Y-60608760D01*
X129572010Y-60608758D01*
X129648758Y-60532010D01*
X129739004Y-60471710D01*
X129739005Y-60471709D01*
X129839279Y-60430174D01*
X129945730Y-60409000D01*
X130054270Y-60409000D01*
X130160721Y-60430174D01*
X130160721Y-60430174D01*
G37*
G36*
X110551000Y-60406000D02*
G01*
X108449000Y-60406000D01*
X108449000Y-59404000D01*
X110551000Y-59404000D01*
X110551000Y-60406000D01*
X110551000Y-60406000D01*
G37*
G36*
X127551000Y-60406000D02*
G01*
X125449000Y-60406000D01*
X125449000Y-59404000D01*
X127551000Y-59404000D01*
X127551000Y-60406000D01*
X127551000Y-60406000D01*
G37*
G36*
X119551000Y-59796000D02*
G01*
X114449000Y-59796000D01*
X114449000Y-54694000D01*
X119551000Y-54694000D01*
X119551000Y-59796000D01*
X119551000Y-59796000D01*
G37*
G36*
X110551000Y-59136000D02*
G01*
X108449000Y-59136000D01*
X108449000Y-58134000D01*
X110551000Y-58134000D01*
X110551000Y-59136000D01*
X110551000Y-59136000D01*
G37*
G36*
X127551000Y-59136000D02*
G01*
X125449000Y-59136000D01*
X125449000Y-58134000D01*
X127551000Y-58134000D01*
X127551000Y-59136000D01*
X127551000Y-59136000D01*
G37*
G36*
X130160721Y-57890174D02*
G01*
X130260995Y-57931709D01*
X130260996Y-57931710D01*
X130351242Y-57992010D01*
X130427990Y-58068758D01*
X130427991Y-58068760D01*
X130488291Y-58159005D01*
X130529826Y-58259279D01*
X130551000Y-58365730D01*
X130551000Y-58474270D01*
X130529826Y-58580721D01*
X130488291Y-58680995D01*
X130488290Y-58680996D01*
X130427990Y-58771242D01*
X130351242Y-58847990D01*
X130305812Y-58878345D01*
X130260995Y-58908291D01*
X130160721Y-58949826D01*
X130054270Y-58971000D01*
X129945730Y-58971000D01*
X129839279Y-58949826D01*
X129739005Y-58908291D01*
X129694188Y-58878345D01*
X129648758Y-58847990D01*
X129572010Y-58771242D01*
X129511710Y-58680996D01*
X129511709Y-58680995D01*
X129470174Y-58580721D01*
X129449000Y-58474270D01*
X129449000Y-58365730D01*
X129470174Y-58259279D01*
X129511709Y-58159005D01*
X129572009Y-58068760D01*
X129572010Y-58068758D01*
X129648758Y-57992010D01*
X129739004Y-57931710D01*
X129739005Y-57931709D01*
X129839279Y-57890174D01*
X129945730Y-57869000D01*
X130054270Y-57869000D01*
X130160721Y-57890174D01*
X130160721Y-57890174D01*
G37*
G36*
X110551000Y-57866000D02*
G01*
X108449000Y-57866000D01*
X108449000Y-56864000D01*
X110551000Y-56864000D01*
X110551000Y-57866000D01*
X110551000Y-57866000D01*
G37*
G36*
X127551000Y-57866000D02*
G01*
X125449000Y-57866000D01*
X125449000Y-56864000D01*
X127551000Y-56864000D01*
X127551000Y-57866000D01*
X127551000Y-57866000D01*
G37*
G36*
X110551000Y-56596000D02*
G01*
X108449000Y-56596000D01*
X108449000Y-55594000D01*
X110551000Y-55594000D01*
X110551000Y-56596000D01*
X110551000Y-56596000D01*
G37*
G36*
X127551000Y-56596000D02*
G01*
X125449000Y-56596000D01*
X125449000Y-55594000D01*
X127551000Y-55594000D01*
X127551000Y-56596000D01*
X127551000Y-56596000D01*
G37*
G36*
X130160721Y-55350174D02*
G01*
X130260995Y-55391709D01*
X130260996Y-55391710D01*
X130351242Y-55452010D01*
X130427990Y-55528758D01*
X130427991Y-55528760D01*
X130488291Y-55619005D01*
X130529826Y-55719279D01*
X130551000Y-55825730D01*
X130551000Y-55934270D01*
X130529826Y-56040721D01*
X130488291Y-56140995D01*
X130488290Y-56140996D01*
X130427990Y-56231242D01*
X130351242Y-56307990D01*
X130305812Y-56338345D01*
X130260995Y-56368291D01*
X130160721Y-56409826D01*
X130054270Y-56431000D01*
X129945730Y-56431000D01*
X129839279Y-56409826D01*
X129739005Y-56368291D01*
X129694188Y-56338345D01*
X129648758Y-56307990D01*
X129572010Y-56231242D01*
X129511710Y-56140996D01*
X129511709Y-56140995D01*
X129470174Y-56040721D01*
X129449000Y-55934270D01*
X129449000Y-55825730D01*
X129470174Y-55719279D01*
X129511709Y-55619005D01*
X129572009Y-55528760D01*
X129572010Y-55528758D01*
X129648758Y-55452010D01*
X129739004Y-55391710D01*
X129739005Y-55391709D01*
X129839279Y-55350174D01*
X129945730Y-55329000D01*
X130054270Y-55329000D01*
X130160721Y-55350174D01*
X130160721Y-55350174D01*
G37*
G36*
X110551000Y-55326000D02*
G01*
X108449000Y-55326000D01*
X108449000Y-54324000D01*
X110551000Y-54324000D01*
X110551000Y-55326000D01*
X110551000Y-55326000D01*
G37*
G36*
X127551000Y-55326000D02*
G01*
X125449000Y-55326000D01*
X125449000Y-54324000D01*
X127551000Y-54324000D01*
X127551000Y-55326000D01*
X127551000Y-55326000D01*
G37*
G36*
X110551000Y-54056000D02*
G01*
X108449000Y-54056000D01*
X108449000Y-53054000D01*
X110551000Y-53054000D01*
X110551000Y-54056000D01*
X110551000Y-54056000D01*
G37*
G36*
X127551000Y-54056000D02*
G01*
X125449000Y-54056000D01*
X125449000Y-53054000D01*
X127551000Y-53054000D01*
X127551000Y-54056000D01*
X127551000Y-54056000D01*
G37*
G36*
X106160721Y-52810174D02*
G01*
X106260995Y-52851709D01*
X106260996Y-52851710D01*
X106351242Y-52912010D01*
X106427990Y-52988758D01*
X106427991Y-52988760D01*
X106488291Y-53079005D01*
X106529826Y-53179279D01*
X106551000Y-53285730D01*
X106551000Y-53394270D01*
X106529826Y-53500721D01*
X106488291Y-53600995D01*
X106488290Y-53600996D01*
X106427990Y-53691242D01*
X106351242Y-53767990D01*
X106305812Y-53798345D01*
X106260995Y-53828291D01*
X106160721Y-53869826D01*
X106054270Y-53891000D01*
X105945730Y-53891000D01*
X105839279Y-53869826D01*
X105739005Y-53828291D01*
X105694188Y-53798345D01*
X105648758Y-53767990D01*
X105572010Y-53691242D01*
X105511710Y-53600996D01*
X105511709Y-53600995D01*
X105470174Y-53500721D01*
X105449000Y-53394270D01*
X105449000Y-53285730D01*
X105470174Y-53179279D01*
X105511709Y-53079005D01*
X105572009Y-52988760D01*
X105572010Y-52988758D01*
X105648758Y-52912010D01*
X105739004Y-52851710D01*
X105739005Y-52851709D01*
X105839279Y-52810174D01*
X105945730Y-52789000D01*
X106054270Y-52789000D01*
X106160721Y-52810174D01*
X106160721Y-52810174D01*
G37*
G36*
X130160721Y-52810174D02*
G01*
X130260995Y-52851709D01*
X130260996Y-52851710D01*
X130351242Y-52912010D01*
X130427990Y-52988758D01*
X130427991Y-52988760D01*
X130488291Y-53079005D01*
X130529826Y-53179279D01*
X130551000Y-53285730D01*
X130551000Y-53394270D01*
X130529826Y-53500721D01*
X130488291Y-53600995D01*
X130488290Y-53600996D01*
X130427990Y-53691242D01*
X130351242Y-53767990D01*
X130305812Y-53798345D01*
X130260995Y-53828291D01*
X130160721Y-53869826D01*
X130054270Y-53891000D01*
X129945730Y-53891000D01*
X129839279Y-53869826D01*
X129739005Y-53828291D01*
X129694188Y-53798345D01*
X129648758Y-53767990D01*
X129572010Y-53691242D01*
X129511710Y-53600996D01*
X129511709Y-53600995D01*
X129470174Y-53500721D01*
X129449000Y-53394270D01*
X129449000Y-53285730D01*
X129470174Y-53179279D01*
X129511709Y-53079005D01*
X129572009Y-52988760D01*
X129572010Y-52988758D01*
X129648758Y-52912010D01*
X129739004Y-52851710D01*
X129739005Y-52851709D01*
X129839279Y-52810174D01*
X129945730Y-52789000D01*
X130054270Y-52789000D01*
X130160721Y-52810174D01*
X130160721Y-52810174D01*
G37*
G36*
X127551000Y-52786000D02*
G01*
X125449000Y-52786000D01*
X125449000Y-51784000D01*
X127551000Y-51784000D01*
X127551000Y-52786000D01*
X127551000Y-52786000D01*
G37*
G36*
X110551000Y-52786000D02*
G01*
X108449000Y-52786000D01*
X108449000Y-51784000D01*
X110551000Y-51784000D01*
X110551000Y-52786000D01*
X110551000Y-52786000D01*
G37*
G36*
X106584468Y-50466065D02*
G01*
X106623138Y-50477796D01*
X106658777Y-50496846D01*
X106690017Y-50522483D01*
X106715654Y-50553723D01*
X106734704Y-50589362D01*
X106746435Y-50628032D01*
X106751000Y-50674388D01*
X106751000Y-51325612D01*
X106746435Y-51371968D01*
X106734704Y-51410638D01*
X106715654Y-51446277D01*
X106690017Y-51477517D01*
X106658777Y-51503154D01*
X106623138Y-51522204D01*
X106584468Y-51533935D01*
X106538112Y-51538500D01*
X105461888Y-51538500D01*
X105415532Y-51533935D01*
X105376862Y-51522204D01*
X105341223Y-51503154D01*
X105309983Y-51477517D01*
X105284346Y-51446277D01*
X105265296Y-51410638D01*
X105253565Y-51371968D01*
X105249000Y-51325612D01*
X105249000Y-50674388D01*
X105253565Y-50628032D01*
X105265296Y-50589362D01*
X105284346Y-50553723D01*
X105309983Y-50522483D01*
X105341223Y-50496846D01*
X105376862Y-50477796D01*
X105415532Y-50466065D01*
X105461888Y-50461500D01*
X106538112Y-50461500D01*
X106584468Y-50466065D01*
X106584468Y-50466065D01*
G37*
G36*
X110551000Y-51516000D02*
G01*
X108449000Y-51516000D01*
X108449000Y-50514000D01*
X110551000Y-50514000D01*
X110551000Y-51516000D01*
X110551000Y-51516000D01*
G37*
G36*
X127551000Y-51516000D02*
G01*
X125449000Y-51516000D01*
X125449000Y-50514000D01*
X127551000Y-50514000D01*
X127551000Y-51516000D01*
X127551000Y-51516000D01*
G37*
G36*
X130160721Y-50270174D02*
G01*
X130260995Y-50311709D01*
X130260996Y-50311710D01*
X130351242Y-50372010D01*
X130427990Y-50448758D01*
X130427991Y-50448760D01*
X130488291Y-50539005D01*
X130529826Y-50639279D01*
X130551000Y-50745730D01*
X130551000Y-50854270D01*
X130529826Y-50960721D01*
X130488291Y-51060995D01*
X130488290Y-51060996D01*
X130427990Y-51151242D01*
X130351242Y-51227990D01*
X130305812Y-51258345D01*
X130260995Y-51288291D01*
X130160721Y-51329826D01*
X130054270Y-51351000D01*
X129945730Y-51351000D01*
X129839279Y-51329826D01*
X129739005Y-51288291D01*
X129694188Y-51258345D01*
X129648758Y-51227990D01*
X129572010Y-51151242D01*
X129511710Y-51060996D01*
X129511709Y-51060995D01*
X129470174Y-50960721D01*
X129449000Y-50854270D01*
X129449000Y-50745730D01*
X129470174Y-50639279D01*
X129511709Y-50539005D01*
X129572009Y-50448760D01*
X129572010Y-50448758D01*
X129648758Y-50372010D01*
X129739004Y-50311710D01*
X129739005Y-50311709D01*
X129839279Y-50270174D01*
X129945730Y-50249000D01*
X130054270Y-50249000D01*
X130160721Y-50270174D01*
X130160721Y-50270174D01*
G37*
G36*
X127551000Y-50246000D02*
G01*
X125449000Y-50246000D01*
X125449000Y-49244000D01*
X127551000Y-49244000D01*
X127551000Y-50246000D01*
X127551000Y-50246000D01*
G37*
G36*
X110551000Y-50246000D02*
G01*
X108449000Y-50246000D01*
X108449000Y-49244000D01*
X110551000Y-49244000D01*
X110551000Y-50246000D01*
X110551000Y-50246000D01*
G37*
G36*
X106584468Y-48591065D02*
G01*
X106623138Y-48602796D01*
X106658777Y-48621846D01*
X106690017Y-48647483D01*
X106715654Y-48678723D01*
X106734704Y-48714362D01*
X106746435Y-48753032D01*
X106751000Y-48799388D01*
X106751000Y-49450612D01*
X106746435Y-49496968D01*
X106734704Y-49535638D01*
X106715654Y-49571277D01*
X106690017Y-49602517D01*
X106658777Y-49628154D01*
X106623138Y-49647204D01*
X106584468Y-49658935D01*
X106538112Y-49663500D01*
X105461888Y-49663500D01*
X105415532Y-49658935D01*
X105376862Y-49647204D01*
X105341223Y-49628154D01*
X105309983Y-49602517D01*
X105284346Y-49571277D01*
X105265296Y-49535638D01*
X105253565Y-49496968D01*
X105249000Y-49450612D01*
X105249000Y-48799388D01*
X105253565Y-48753032D01*
X105265296Y-48714362D01*
X105284346Y-48678723D01*
X105309983Y-48647483D01*
X105341223Y-48621846D01*
X105376862Y-48602796D01*
X105415532Y-48591065D01*
X105461888Y-48586500D01*
X106538112Y-48586500D01*
X106584468Y-48591065D01*
X106584468Y-48591065D01*
G37*
M02*
