M48
; DRILL file {KiCad (5.1.2-1)-1} date 2021 February 06, Saturday 11:05:55
; FORMAT={3:3/ absolute / metric / suppress leading zeros}
; #@! TF.CreationDate,2021-02-06T11:05:55+01:00
; #@! TF.GenerationSoftware,Kicad,Pcbnew,(5.1.2-1)-1
FMAT,2
METRIC,TZ
T1C0.400
T2C0.750
%
G90
G05
T1
X106000Y-91000
X106900Y-55800
X109700Y-88500
X110300Y-72600
X110900Y-82600
X112500Y-58000
X112500Y-82000
X113200Y-96100
X114200Y-87600
X115000Y-83400
X116000Y-91200
X116500Y-52300
X116580Y-51015
X117063Y-93500
X121587Y-86787
X122300Y-88800
X124300Y-87600
X125500Y-97000
X126500Y-62445
X127600Y-78500
X128300Y-67500
X130000Y-53340
X130000Y-55880
T2
X124500Y-94500
X126500Y-94500
T0
M30
